<svg width="14" height="14" viewBox="0 0 14 14" fill="none" xmlns="http://www.w3.org/2000/svg"><path d="M13.473 12.527l-.946.946a.667.667 0 0 1-.94 0l-7.92-7.906a2.54 2.54 0 0 1-.667.1A2.667 2.667 0 0 1 .48 2.133l1.693 1.694.354-.354.946-.946.354-.354L2.133.48A2.667 2.667 0 0 1 5.667 3a2.54 2.54 0 0 1-.1.667l7.906 7.92a.667.667 0 0 1 0 .94zm-12.946-.94a.667.667 0 0 0 0 .94l.946.946a.667.667 0 0 0 .94 0l3.647-3.64-1.887-1.886-3.646 3.64zM12.333.333L9.667 1.667V3L8.22 4.447 9.553 5.78 11 4.333h1.333l1.334-2.666L12.333.333z" fill="#A7E200"/></svg>