<svg width="200" height="43" viewBox="0 0 200 43" fill="none" xmlns="http://www.w3.org/2000/svg"><path d="M56.601 12.028a.273.273 0 0 1 .29-.29h11.875a.273.273 0 0 1 .29.29v1.829a.276.276 0 0 1-.176.273.274.274 0 0 1-.114.017H59.36a.155.155 0 0 0-.167.104.153.153 0 0 0-.007.07v5.805a.155.155 0 0 0 .104.168.14.14 0 0 0 .07.006h7.985a.274.274 0 0 1 .29.29v1.83a.273.273 0 0 1-.29.29H59.36a.154.154 0 0 0-.175.174v6.008a.153.153 0 0 0 .174.174h9.407a.274.274 0 0 1 .29.29v1.83a.274.274 0 0 1-.29.29H56.892a.273.273 0 0 1-.29-.29V12.027zm16.347 0a.274.274 0 0 1 .29-.29h6.649c3.338 0 5.545 1.422 6.445 4.209.348 1.073.523 2.148.523 5.66s-.175 4.586-.523 5.66c-.9 2.786-3.107 4.209-6.445 4.209h-6.65a.274.274 0 0 1-.29-.29V12.027zm2.758 17.039h3.629c2.38 0 3.861-.784 4.5-2.7.262-.726.407-1.684.407-4.76 0-3.077-.145-4.035-.407-4.76-.639-1.917-2.12-2.7-4.5-2.7h-3.63a.155.155 0 0 0-.174.174v14.571a.155.155 0 0 0 .104.168c.023.008.047.01.07.007zm15.33-17.039a.274.274 0 0 1 .29-.29H103.2a.275.275 0 0 1 .291.29v1.829a.277.277 0 0 1-.291.29h-9.406a.153.153 0 0 0-.168.104.153.153 0 0 0-.007.07v5.805a.156.156 0 0 0 .044.131.153.153 0 0 0 .13.043h7.985a.279.279 0 0 1 .21.08.272.272 0 0 1 .08.21v1.83a.272.272 0 0 1-.176.273.279.279 0 0 1-.114.017h-7.984a.153.153 0 0 0-.168.103.156.156 0 0 0-.007.07v6.01a.153.153 0 0 0 .104.167c.023.008.047.01.07.007h9.407a.272.272 0 0 1 .273.176c.014.036.02.075.018.114v1.828a.276.276 0 0 1-.291.29H91.326a.274.274 0 0 1-.29-.29V12.028zm16.346 0a.26.26 0 0 1 .017-.114.283.283 0 0 1 .062-.096.282.282 0 0 1 .211-.08h2.003a.274.274 0 0 1 .29.29v16.864a.153.153 0 0 0 .007.07c.007.023.02.044.037.061a.157.157 0 0 0 .131.044h9.406a.274.274 0 0 1 .291.29v1.828a.276.276 0 0 1-.291.29h-11.874a.274.274 0 0 1-.29-.29V12.028zm28.627 19.448c-.174 0-.261-.116-.319-.29l-4.21-14.717h-.058l-4.181 14.716a.367.367 0 0 1-.348.29h-1.597a.317.317 0 0 1-.32-.29l-4.761-19.157c-.058-.174.029-.29.232-.29h1.916a.307.307 0 0 1 .349.29l3.513 14.658h.058l4.094-14.658a.367.367 0 0 1 .348-.29h1.481c.203 0 .29.116.348.29l4.181 14.658h.058l3.426-14.658a.346.346 0 0 1 .377-.29h1.887c.204 0 .262.116.233.29l-4.762 19.157a.345.345 0 0 1-.348.29h-1.597zm9.843-19.448a.277.277 0 0 1 .291-.29h11.874a.275.275 0 0 1 .291.29v1.829a.277.277 0 0 1-.291.29h-9.406a.155.155 0 0 0-.131.043.146.146 0 0 0-.037.06.154.154 0 0 0-.007.071v5.805a.154.154 0 0 0 .007.07.15.15 0 0 0 .168.104h7.984a.272.272 0 0 1 .21.08c.027.028.049.06.063.097a.293.293 0 0 1 .017.114v1.828a.293.293 0 0 1-.017.114.286.286 0 0 1-.063.097.272.272 0 0 1-.21.08h-7.984a.155.155 0 0 0-.131.043.146.146 0 0 0-.037.06.154.154 0 0 0-.007.07v6.01a.153.153 0 0 0 .007.07.152.152 0 0 0 .168.104h9.406a.272.272 0 0 1 .273.176c.014.036.02.075.018.114v1.828a.276.276 0 0 1-.291.29h-11.874a.274.274 0 0 1-.291-.29V12.028zm16.346 0a.277.277 0 0 1 .291-.29h2.003a.274.274 0 0 1 .29.29v19.157a.272.272 0 0 1-.176.273.274.274 0 0 1-.114.018h-2.003a.274.274 0 0 1-.291-.29V12.027zm6.504 17.3a.314.314 0 0 1-.029-.436l1.277-1.509a.258.258 0 0 1 .311-.095.258.258 0 0 1 .095.066c1.278 1.016 3.252 2.032 5.517 2.032 2.729 0 4.355-1.364 4.355-3.367 0-1.684-.958-2.816-4.123-3.222l-.987-.145c-3.833-.523-5.807-2.352-5.807-5.457 0-3.513 2.526-5.777 6.446-5.777 2.322 0 4.558.755 6.01 1.829a.25.25 0 0 1 .084.08c.022.033.037.07.042.11a.255.255 0 0 1-.068.216l-.988 1.597a.275.275 0 0 1-.19.116.286.286 0 0 1-.216-.058c-1.597-.987-3.078-1.48-4.761-1.48-2.41 0-3.746 1.306-3.746 3.192 0 1.655 1.104 2.758 4.152 3.165l.958.145c3.862.522 5.807 2.293 5.807 5.515 0 3.454-2.439 5.95-7.2 5.95-2.788 0-5.488-1.132-6.939-2.467zm17.159 0a.314.314 0 0 1-.029-.436l1.277-1.509a.258.258 0 0 1 .311-.095.261.261 0 0 1 .096.066c1.277 1.016 3.251 2.032 5.516 2.032 2.729 0 4.355-1.364 4.355-3.367 0-1.684-.958-2.816-4.123-3.222l-.987-.145c-3.832-.523-5.807-2.352-5.807-5.457 0-3.513 2.526-5.777 6.446-5.777 2.322 0 4.558.755 6.01 1.829a.264.264 0 0 1 .058.406l-.987 1.597a.291.291 0 0 1-.191.116.286.286 0 0 1-.216-.058c-1.597-.987-3.077-1.48-4.761-1.48-2.41 0-3.746 1.306-3.746 3.192 0 1.655 1.104 2.758 4.152 3.165l.958.145c3.862.522 5.807 2.293 5.807 5.515 0 3.454-2.439 5.95-7.2 5.95-2.787 0-5.488-1.132-6.939-2.467z" fill="#fff"/><path fill-rule="evenodd" clip-rule="evenodd" d="M34.277 11.593c1.468-2.232 1.049-1.107 2.434-2.377.503-.454 2.223-1.542 2.978-1.814.378 1.614-.377 2.594-1.007 3.556-.42.635-1.384 2.54-1.762 2.83-.21-.164-.293-.49-.42-.78-.377-.926-1.761-1.18-2.223-1.415zm-4.07 3.338c-.167-.309-.503-.672-.713-1.016-.126-.218-.545-.907-.545-1.161a13.404 13.404 0 0 1 2.265.054c.65.089 1.295.216 1.93.381.084.073-.084.87-.084 1.034.21-.254.252-.707.42-.943 1.007.181 2.14 1.705 2.643 2.503.252.381.21.436.755.545 1.091.235 2.182.2 3.357.508 1.342.344 2.81.67 3.901 1.251.714.4 1.091.962.042 1.27-.713.218-1.72-.072-2.223-.236v.037c0 .018.042.036.042.036.377.635.965.98.923 1.869 0 .707-.504 1.669-.84 2.068a1.189 1.189 0 0 1-.964.49c-.42-.019-.672-.345-.881-.545-.546-.508-1.385-.562-2.308-.617-.461-.653.126-1.705.462-2.177.377-.526 1.09-.925 1.846-1.16-.168-.309-1.05-.509-1.343-.6-1.09-.271-2.307-.362-3.398-.507-.336-.055-.378-.218-.546-.418a1.888 1.888 0 0 1-.461-.526c.335-.254.461-.526.839-.798.042-.653-.084-1.56-.587-1.705.21.744.251.453.251 1.451-.377-.072-.251-.127-.671-.054-.671.09-1.426.054-2.098.181-.629.109-.629.327-1.007.472-.335.145-.839.127-1.132.363.713.707 2.097-.164 3.188.399.462.217.797.435 1.3.635.42.163 1.175.29 1.26.707-.042.272-2.602 1.651-2.812 3.52.507-.192.998-.422 1.469-.69.252-.127 1.3-.78 1.552-.363.21.581-.335 2.196-.294 2.94-1.51-.073-.839-2.667-1.804-1.778-.587.58-2.349 1.614-2.475 1.814l.504.363c.21-.073.42-.2.587-.272.881-.381.797-.4 1.51-.98-.042.617-.965 2.195-1.258 2.558-.63.798-1.972-.599-2.434-1.016-.671-.635-1.51-1.198-2.097-1.76a6.186 6.186 0 0 1-1.301-1.614 3.865 3.865 0 0 0-.378-.617c-.335.58 0 2.068.252 2.576.797 1.778 2.098 1.65 3.315 2.721a8.93 8.93 0 0 1 1.468 1.56c.713.998.797 3.266 1.426 4.59a6.007 6.007 0 0 0 1.301 1.742 2.787 2.787 0 0 0 2.224.834c-.39.924-.882 1.8-1.469 2.613-1.258-.145-2.601-1.18-2.937-2.087-.251-.598-.251-1.487-.335-2.195-.21-1.923-.588-4.408-1.804-5.805-.588-.671-1.72-1.107-2.685-1.143a3.161 3.161 0 0 0-1.091.054c-.168.073-.042 0-.126.091.63.363 1.342 1.252 1.846 1.923.587.87.839 1.451 1.049 2.758.19 1.128.316 2.267.377 3.41.042.508.336 1.216.126 1.687-.168.526-.587.853-.755 1.198.713-.036.881-.58 1.343-.617.251.127.251.326.167.653a4.933 4.933 0 0 1-.713 1.325l-.503.544c.965 0 .88-.182 1.342-.635a1.643 1.643 0 0 1 1.469-.526c.251.471.503.852.755 1.415.21.471.503 1.07 1.09 1.088.043-.453-.335-1.451-.419-1.96 1.133.164 1.972-.09 2.56-.707 1.132-1.27 2.265-4.3 2.349-6.077 0-.345.042-1.36-.084-1.615-.168-.163-.671.925-.713.998-.324.348-.75.584-1.217.671-.168-.29-.084-.798-.252-1.034-.21.073-.21.2-.251.436a.8.8 0 0 1-.21.471c-.672.018-.84-.87-1.007-1.47-.21-.652-.42-1.45-.294-2.194.672-3.447 3.902-5.425 5.245-4.137.88.817-.21 1.56-.965 2.105l-.714.544c0 .018-.042.018-.042.036.756.4 2.853-.598 3.399-.943a15.266 15.266 0 0 0 2.265-2.195c.42-.599.797-1.36 1.343-1.923.63-.726 1.175-2.377 1.678-2.758.252-.2.504-.236.545-.617a5.728 5.728 0 0 0-1.09-.526c-1.469-.616-.881-.98-3.273-1.578a21.57 21.57 0 0 0-2.685-.544c-.545-.037-1.007 0-1.468-.182a2.45 2.45 0 0 1-.881-.707c1.132-.69 2.265-1.579 2.81-2.921.588-1.397.462-3.665.294-5.316-.335.091-1.636.617-2.14.799-1.803.598-2.349.417-3.65 2.322a11.924 11.924 0 0 0-1.048 1.923c-1.72-.145-2.476-.145-4.112.653-.252.109-.63.363-.839.417a10.288 10.288 0 0 1-.63-3.265c0-.998.252-5.715.672-6.168.126.09.168.544.587.907.276.23.516.499.713.798a39.562 39.562 0 0 1 2.518 5.696c.042.11.042.182.084.273.084.163.042.163.168.235.251-.163.419-1.306.419-1.542-.042-1.94-.755-4.59-1.93-6.04-.671-.817-1.216-.872-1.888-2.05A4.459 4.459 0 0 1 29.075.38a.607.607 0 0 0-.126-.38c-1.51 2.086-1.427 3.374-1.804 5.77a13.9 13.9 0 0 0-.252 2.321 9.972 9.972 0 0 0 .755 4.282 5.827 5.827 0 0 0 1.05 1.505c.25.309 1.006.926 1.51 1.053zM11.663 39.386c.126-1.143.42-1.688.546-3.32.084-1.397.21-2.032.797-3.084 1.133-2.141 2.475-2.885 3.02-3.81.169-.327.043-.381.378-.58a9.72 9.72 0 0 0-1.258.036c-.672.018-.588.036-1.007.363-.503.391-.98.816-1.427 1.27-3.02 2.975-2.014 4.535-2.685 8.145a11.29 11.29 0 0 1-.545 2.14c-.126.327-.84 1.67-.713 1.924.042.018 0 .163.377-.055.084-.072.21-.127.294-.2 1.972-1.414 2.265-1.759 4.867-2.684 2.685-.98 6.754-2.14 8.894-3.973a9.497 9.497 0 0 0 1.972-2.322c.587-1.125.671-1.996 1.007-3.302.335-1.451.168-2.504-.252-3.737-.168.163-.378 1.016-.461 1.27-.923 2.63-3.105 5.152-5.119 6.893-1.133.98-2.433 2.069-4.028 2.83-1.72.835-2.894.654-4.237 1.778-.168.146-.294.29-.42.418zM0 22.677a29.73 29.73 0 0 1 3.692.599c1.106.214 2.16.64 3.105 1.252 2.391 1.47 2.517 2.013 5.622 3.102 3.817 1.324 7.048.308 10.404-1.451.252-.127 2.602-1.38 2.686-1.67-.378-.18-3.483.454-4.196.708-.42.145-.755.327-1.175.49-3.146 1.197-8.097.018-11.034-1.433-.755-.381-1.175-.762-2.14-1.216-.587-.254-1.845-.798-2.559-.816a10.94 10.94 0 0 1 1.678-.508c2.098-.472 3.105.054 5.245-1.506a10.12 10.12 0 0 0 1.175-1.07 17.987 17.987 0 0 1 3.524-2.649l.42-.236-.966-.544c-.42-.218-.629-.435-1.174-.308a9.73 9.73 0 0 0-2.224.888c-.671.381-1.259.799-1.888 1.198-.587.399-1.259.852-1.846 1.252-1.594 1.215-1.72 1.487-3.734 2.376-.755.308-1.468.58-2.266.835-.335.108-2.265.635-2.349.707zM2.308 4.771c.21.127 1.3.454 1.636.599 3.188 1.397 3.734 3.683 5.496 5.642 2.056 2.322 4.992 4.1 8.055 5.297 2.056.799 5.035 1.869 7.3 1.579-.797-.508-1.678-.762-2.643-1.143-.923-.381-1.804-.744-2.727-1.161-3.272-1.488-5.622-2.94-8.055-5.406C10.279 9.07 8.643 7.02 7.594 6.186a5.464 5.464 0 0 0-.546-.417c-.21-.145-.461-.254-.587-.363a20.39 20.39 0 0 1 6.587.418 19.477 19.477 0 0 1 5.328 1.94c.797.436 1.469.908 2.224 1.38 1.51.906 3.314 1.36 4.909 2.34.42.254.755.49 1.09.725.336.218.756.672 1.05.799-.169-.6-1.553-2.014-1.93-2.34a15.328 15.328 0 0 0-2.392-1.87c-3.818-2.448-8.014-4.063-12.754-4.335-1.595-.109-4.112.236-6.126.254-.21 0-1.972-.036-2.14.054zm17.075 19.974c.713.29.755.272 1.427-.018.42-.163 3.524-1.778 3.818-2.14-1.679-.11-4.867 1.16-5.245 2.158zm6.88-7.02l-1.636-.944c-1.468-.69-4.573-1.868-6.125-1.76.597.324 1.23.574 1.888.744 1.418.186 2.802.57 4.112 1.143.42.181 1.468.58 1.762.816z" fill="#A7E200"/></svg>