<svg width="200" height="52" viewBox="0 0 200 52" fill="none" xmlns="http://www.w3.org/2000/svg"><path d="M68.117 13.25a.256.256 0 0 1 .073-.194.252.252 0 0 1 .194-.073h10.921a.251.251 0 0 1 .251.163.249.249 0 0 1 .016.105v1.687a.254.254 0 0 1-.267.268h-8.651a.142.142 0 0 0-.155.095.143.143 0 0 0-.006.065v5.357a.142.142 0 0 0 .16.16h7.344a.252.252 0 0 1 .267.268v1.687a.252.252 0 0 1-.267.268h-7.343a.141.141 0 0 0-.155.096.142.142 0 0 0-.006.065v5.544a.143.143 0 0 0 .096.154.13.13 0 0 0 .065.006h8.651a.251.251 0 0 1 .267.268v1.687a.252.252 0 0 1-.267.268H68.384a.253.253 0 0 1-.267-.268V13.251zm15.033 0a.252.252 0 0 1 .267-.267h6.115c3.07 0 5.1 1.312 5.928 3.883.32.991.48 1.982.48 5.222s-.16 4.232-.48 5.223c-.828 2.57-2.857 3.883-5.928 3.883h-6.115a.25.25 0 0 1-.25-.163.254.254 0 0 1-.017-.105V13.251zm2.537 15.721h3.338c2.19 0 3.551-.723 4.139-2.49.24-.67.373-1.554.373-4.393 0-2.838-.133-3.722-.373-4.392-.588-1.767-1.95-2.49-4.14-2.49h-3.337a.143.143 0 0 0-.154.095.143.143 0 0 0-.006.065v13.445a.144.144 0 0 0 .04.12.142.142 0 0 0 .12.04zM99.786 13.25a.253.253 0 0 1 .267-.267h10.921a.253.253 0 0 1 .267.268v1.687a.25.25 0 0 1-.074.194.25.25 0 0 1-.193.074h-8.651a.142.142 0 0 0-.161.16v5.357a.143.143 0 0 0 .096.155.143.143 0 0 0 .065.005h7.342a.25.25 0 0 1 .194.074.262.262 0 0 1 .058.09.26.26 0 0 1 .016.104v1.687a.267.267 0 0 1-.016.105.262.262 0 0 1-.147.147.252.252 0 0 1-.105.016h-7.342a.143.143 0 0 0-.155.096.143.143 0 0 0-.006.065v5.544a.143.143 0 0 0 .096.154.142.142 0 0 0 .065.006h8.651a.255.255 0 0 1 .193.074.25.25 0 0 1 .074.194v1.687a.25.25 0 0 1-.074.194.25.25 0 0 1-.193.074h-10.921a.252.252 0 0 1-.267-.268V13.251zm15.033 0a.248.248 0 0 1 .074-.194.249.249 0 0 1 .193-.073h1.843a.248.248 0 0 1 .193.074.262.262 0 0 1 .058.089.266.266 0 0 1 .016.105v15.56a.13.13 0 0 0 .005.065.14.14 0 0 0 .035.055.143.143 0 0 0 .12.04h8.651a.25.25 0 0 1 .251.163.25.25 0 0 1 .016.105v1.687a.25.25 0 0 1-.073.194.254.254 0 0 1-.194.074h-10.921a.25.25 0 0 1-.193-.074.25.25 0 0 1-.074-.194V13.251zm26.329 17.944c-.16 0-.241-.107-.294-.268l-3.872-13.578h-.053l-3.845 13.578a.34.34 0 0 1-.321.268h-1.468a.292.292 0 0 1-.294-.268l-4.379-17.675c-.053-.161.027-.268.214-.268h1.762a.276.276 0 0 1 .219.063.279.279 0 0 1 .101.205l3.231 13.524h.054l3.765-13.524a.34.34 0 0 1 .32-.268h1.362c.187 0 .267.107.32.268l3.845 13.524h.054l3.151-13.524a.32.32 0 0 1 .347-.268h1.735c.187 0 .241.107.214.268l-4.379 17.675a.317.317 0 0 1-.321.268h-1.468zm9.053-17.944a.25.25 0 0 1 .073-.193.25.25 0 0 1 .194-.074h10.921a.248.248 0 0 1 .193.073.264.264 0 0 1 .058.09.266.266 0 0 1 .016.105v1.687a.267.267 0 0 1-.016.105.262.262 0 0 1-.147.147.25.25 0 0 1-.104.016h-8.652a.143.143 0 0 0-.12.04.143.143 0 0 0-.04.12v5.357a.143.143 0 0 0 .096.155c.02.006.043.008.064.005h7.343a.25.25 0 0 1 .251.163.25.25 0 0 1 .016.105v1.687a.25.25 0 0 1-.073.194.254.254 0 0 1-.194.074h-7.343a.139.139 0 0 0-.064.006.146.146 0 0 0-.056.034.143.143 0 0 0-.04.12v5.544a.143.143 0 0 0 .095.155.143.143 0 0 0 .065.006h8.652a.25.25 0 0 1 .193.074.264.264 0 0 1 .058.089c.012.034.018.07.016.105v1.687a.268.268 0 0 1-.016.105.262.262 0 0 1-.147.147.25.25 0 0 1-.104.016h-10.921a.252.252 0 0 1-.267-.268V13.251zm15.033 0a.25.25 0 0 1 .073-.193.253.253 0 0 1 .194-.074h1.843a.248.248 0 0 1 .193.074.25.25 0 0 1 .073.194v17.675a.236.236 0 0 1-.016.105.248.248 0 0 1-.146.147.248.248 0 0 1-.104.016h-1.843a.253.253 0 0 1-.267-.268V13.251zm5.981 15.962a.292.292 0 0 1-.027-.401l1.175-1.393a.237.237 0 0 1 .286-.087.233.233 0 0 1 .088.06 8.351 8.351 0 0 0 5.073 1.875c2.51 0 4.006-1.259 4.006-3.106 0-1.554-.882-2.598-3.792-2.973l-.908-.134c-3.525-.482-5.34-2.17-5.34-5.035 0-3.24 2.323-5.33 5.928-5.33 2.136 0 4.192.697 5.527 1.688a.243.243 0 0 1 .053.375l-.908 1.473a.257.257 0 0 1-.373.054c-1.469-.911-2.831-1.367-4.379-1.367-2.217 0-3.445 1.205-3.445 2.946 0 1.527 1.015 2.544 3.818 2.92l.881.133c3.552.482 5.341 2.116 5.341 5.089 0 3.187-2.243 5.49-6.622 5.49-2.564 0-5.047-1.044-6.382-2.277zm15.781 0a.292.292 0 0 1-.027-.401l1.175-1.393a.24.24 0 0 1 .374-.026 8.352 8.352 0 0 0 5.074 1.874c2.509 0 4.005-1.259 4.005-3.106 0-1.554-.881-2.598-3.792-2.973l-.908-.134c-3.524-.482-5.34-2.17-5.34-5.035 0-3.24 2.323-5.33 5.928-5.33 2.136 0 4.192.697 5.527 1.688a.243.243 0 0 1 .053.375l-.908 1.473a.254.254 0 0 1-.175.107.262.262 0 0 1-.198-.054c-1.469-.91-2.831-1.366-4.379-1.366-2.217 0-3.445 1.205-3.445 2.946 0 1.527 1.015 2.544 3.818 2.92l.882.133c3.551.482 5.34 2.116 5.34 5.089 0 3.187-2.243 5.49-6.622 5.49-2.563 0-5.047-1.044-6.382-2.277z" fill="#fff"/><path d="M72.697 37.848a2.08 2.08 0 0 0-.778-.425 2.962 2.962 0 0 0-.812-.118c-.176 0-.35.025-.52.073a1.24 1.24 0 0 0-.795.685c-.091.206-.136.43-.13.656v2.274c-.006.224.038.447.13.651.08.169.195.317.339.436.136.112.294.196.462.249.166.052.34.079.513.079.27-.001.537-.039.796-.113a2.37 2.37 0 0 0 .807-.43l.733 1.2c-.31.254-.666.446-1.05.565a4.172 4.172 0 0 1-1.308.204c-.367 0-.732-.053-1.083-.159a3.01 3.01 0 0 1-.948-.47 2.42 2.42 0 0 1-.677-.78c-.18-.34-.268-.72-.26-1.103v-2.92c-.007-.38.08-.755.255-1.092a2.45 2.45 0 0 1 .665-.786c.283-.215.602-.376.942-.476a3.763 3.763 0 0 1 1.084-.158c.44-.001.879.06 1.303.181.397.11.765.307 1.077.577l-.745 1.2zm7.672 3.417a2.46 2.46 0 0 1-.237 1.109 2.39 2.39 0 0 1-.642.803 2.744 2.744 0 0 1-.951.492 4.141 4.141 0 0 1-2.309 0c-.346-.1-.67-.267-.951-.492a2.39 2.39 0 0 1-.642-.803 2.462 2.462 0 0 1-.236-1.109v-2.863a2.292 2.292 0 0 1 .912-1.89c.287-.215.611-.376.957-.475a3.928 3.928 0 0 1 1.115-.158c.378 0 .754.056 1.114.17.346.105.67.272.958.492a2.331 2.331 0 0 1 .912 1.906v2.818zm-1.546-2.546a1.532 1.532 0 0 0-.124-.65 1.246 1.246 0 0 0-.784-.685 1.805 1.805 0 0 0-1.055 0 1.246 1.246 0 0 0-.79.685c-.088.205-.13.427-.124.65v2.275a1.57 1.57 0 0 0 .124.656c.075.17.187.32.328.441.135.113.292.196.462.243a1.929 1.929 0 0 0 1.055 0c.168-.048.323-.13.457-.243.14-.12.252-.271.327-.441a1.57 1.57 0 0 0 .124-.656v-2.275zm8.721 2.719a2.66 2.66 0 0 1-.147.893 2.17 2.17 0 0 1-.428.734 2.033 2.033 0 0 1-.7.503 2.36 2.36 0 0 1-.97.187h-3.644v-7.797h3.497c.345-.008.687.05 1.01.17.264.102.503.26.7.465.183.195.323.427.412.68.09.259.136.53.135.805a1.942 1.942 0 0 1-.231.884c-.16.307-.416.554-.728.703.18.085.345.202.485.344.259.265.445.591.541.95.044.156.067.317.068.48zm-1.726-3.205a.835.835 0 0 0-.254-.657 1.167 1.167 0 0 0-.795-.226H83.2v1.709h1.59c.271.016.539-.064.756-.227a.74.74 0 0 0 .271-.6zm.09 3.151a.973.973 0 0 0-.282-.726 1.07 1.07 0 0 0-.778-.275H83.2v1.98h1.658a1.064 1.064 0 0 0 .784-.265.963.963 0 0 0 .265-.714zm2.798-5.426h5.359v1.392h-3.813v1.788h3.26v1.391h-3.26v1.834h3.813v1.391h-5.359v-7.796zm9.962 0c.344-.01.685.067.993.22.269.14.505.335.694.572.184.234.322.5.406.786.084.277.128.565.129.855a2.63 2.63 0 0 1-.592 1.64 2.256 2.256 0 0 1-.71.572c-.3.15-.63.227-.965.22h-1.884v2.931h-1.546v-7.796h3.475zm-1.93 3.474h1.58a1.032 1.032 0 0 0 .801-.296 1.15 1.15 0 0 0-.005-1.49 1.037 1.037 0 0 0-.796-.296h-1.58v2.082zm13.979-3.474v7.796h-9.015v-7.796h1.546v6.405h2.189v-6.405h1.545v6.405h2.189v-6.405h1.546zm1.342 0h5.359v1.392h-3.813v1.788h3.261v1.391h-3.261v1.834h3.813v1.391h-5.359v-7.796zm10.898 7.796v-3.258h-2.865v3.258h-1.546v-7.796h1.546v3.146h2.865v-3.146h1.569v7.796h-1.569zm7.458-5.906a2.083 2.083 0 0 0-.779-.425 2.96 2.96 0 0 0-.812-.118c-.175 0-.35.025-.519.073a1.234 1.234 0 0 0-.795.685 1.51 1.51 0 0 0-.13.656v2.274c-.007.224.038.447.13.651.079.169.195.317.338.436.137.112.294.196.463.249.166.052.339.079.513.079.269-.001.537-.039.795-.113.295-.09.569-.236.807-.43l.733 1.2c-.31.254-.666.446-1.049.565a4.165 4.165 0 0 1-1.308.204c-.367 0-.732-.053-1.084-.159a3.008 3.008 0 0 1-.947-.47 2.421 2.421 0 0 1-.677-.78c-.18-.34-.269-.72-.26-1.103v-2.92c-.008-.38.079-.755.254-1.092a2.46 2.46 0 0 1 .666-.786c.282-.215.602-.376.942-.476a3.759 3.759 0 0 1 1.083-.158c.441-.001.879.06 1.303.181.397.11.765.307 1.077.577l-.744 1.2zm4.84-.498v6.404h-1.546V37.35h-2.065v-1.392h5.664v1.392h-2.053zm8.743 4.088c.002.304-.048.606-.147.893-.093.27-.239.52-.429.734a2.025 2.025 0 0 1-.699.503c-.307.13-.637.194-.97.187h-3.644v-7.797h3.497a2.71 2.71 0 0 1 1.01.17c.264.102.503.26.699.465a1.9 1.9 0 0 1 .412.68c.091.259.136.53.135.805a1.924 1.924 0 0 1-.231.884 1.581 1.581 0 0 1-.728.703c.181.085.345.202.486.344.258.265.445.592.541.95.043.156.066.317.068.48zm-1.726-3.205a.834.834 0 0 0-.254-.657 1.173 1.173 0 0 0-.796-.226h-1.568v1.709h1.591c.271.016.539-.064.756-.227a.741.741 0 0 0 .271-.6zm.09 3.151a.975.975 0 0 0-.282-.726 1.066 1.066 0 0 0-.778-.275h-1.648v1.98h1.659a1.06 1.06 0 0 0 .784-.265.975.975 0 0 0 .265-.714zm8.698-.119c.009.383-.072.763-.236 1.109a2.405 2.405 0 0 1-.642.803 2.739 2.739 0 0 1-.952.492 4.14 4.14 0 0 1-2.308 0c-.346-.1-.67-.267-.952-.492a2.39 2.39 0 0 1-.641-.803 2.469 2.469 0 0 1-.237-1.109v-2.863a2.294 2.294 0 0 1 .912-1.89 2.94 2.94 0 0 1 .957-.475 3.938 3.938 0 0 1 1.115-.158 3.7 3.7 0 0 1 1.115.17c.346.105.67.272.957.492a2.325 2.325 0 0 1 .912 1.906v2.818zm-1.545-2.546a1.546 1.546 0 0 0-.124-.65 1.25 1.25 0 0 0-.785-.685 1.798 1.798 0 0 0-1.054 0 1.235 1.235 0 0 0-.79.685 1.53 1.53 0 0 0-.124.65v2.275a1.57 1.57 0 0 0 .124.656 1.204 1.204 0 0 0 .79.684 1.926 1.926 0 0 0 1.054 0 1.223 1.223 0 0 0 .785-.684c.087-.207.13-.431.124-.656v-2.275zm5.719 3.666c.172-.126.321-.281.44-.458.131-.201.232-.42.299-.65.087-.295.149-.596.186-.9.046-.344.079-.749.102-1.217l.147-3.202h5.257c0 1.079.002 2.152.005 3.22.004 1.067.006 2.14.006 3.219h.677v3.1h-1.41v-1.743h-4.874v1.743h-1.41v-3.112h.575zm2.561-5.058l-.09 1.867c-.015.332-.034.647-.056.945a9.555 9.555 0 0 1-.102.849 4.708 4.708 0 0 1-.192.758c-.08.232-.194.452-.338.65h3.125v-5.069h-2.347zm7.954.023v2.07c.004.59-.034 1.18-.113 1.766a4.4 4.4 0 0 1-.406 1.369c-.188.375-.47.695-.818.928-.409.255-.87.413-1.348.464l-.339-1.268c.283-.084.548-.222.779-.407.2-.172.356-.39.457-.634.117-.292.19-.602.214-.916.034-.355.051-.773.051-1.256v-3.508h5.122v7.796h-1.569V37.35h-2.03zm10.729-1.392v7.797h-1.546v-3.09h-.903a1.87 1.87 0 0 0-.428.046.981.981 0 0 0-.632.47c-.095.16-.167.333-.214.514l-.587 2.06h-1.704l.655-2.139c.08-.263.182-.518.304-.764a1.22 1.22 0 0 1 .531-.526 1.502 1.502 0 0 1-.587-.311 1.821 1.821 0 0 1-.389-.481 2.093 2.093 0 0 1-.22-.583 2.775 2.775 0 0 1 .073-1.488 2.13 2.13 0 0 1 1.171-1.301 2.508 2.508 0 0 1 1.053-.204h3.423zm-1.546 1.392h-1.557a1.12 1.12 0 0 0-.846.283 1.08 1.08 0 0 0-.271.77.832.832 0 0 0 .282.684c.236.17.523.251.813.232h1.579V37.35zm10.402 1.324l-.767 1.188-.333.526c-.132.208-.277.432-.434.673a193.308 193.308 0 0 0-1.399 2.167c-.136.208-.249.383-.339.526h-1.399v-7.796h1.546v5.126h.045l1.62-2.546 1.655-2.58h1.407v7.796h-1.546v-5.08h-.056zm3.012 5.08v-7.796h5.348v1.392h-3.802v6.404h-1.546zm9.432-7.796c.344-.01.684.067.992.22.269.14.506.335.694.572.184.234.322.5.406.786.085.277.129.565.13.855a2.63 2.63 0 0 1-.592 1.64 2.26 2.26 0 0 1-.711.572c-.299.15-.63.227-.965.22h-1.884v2.931h-1.545v-7.796h3.475zm-1.93 3.474h1.58a1.03 1.03 0 0 0 .801-.296 1.15 1.15 0 0 0-.006-1.49 1.034 1.034 0 0 0-.795-.296h-1.58v2.082z" fill="#A7E200"/><path fill-rule="evenodd" clip-rule="evenodd" d="M41.25 13.996c1.768-2.694 1.263-1.336 2.93-2.87.605-.547 2.675-1.861 3.584-2.19.454 1.95-.454 3.132-1.212 4.293-.505.767-1.666 3.067-2.12 3.417-.253-.197-.354-.591-.505-.942-.455-1.117-2.12-1.424-2.676-1.708zm-4.897 4.03c-.202-.372-.606-.81-.858-1.227-.152-.262-.656-1.095-.656-1.401a16.072 16.072 0 0 1 2.726.065c.783.107 1.558.26 2.323.46.1.088-.101 1.051-.101 1.249.252-.307.303-.855.505-1.14 1.211.22 2.575 2.06 3.18 3.023.303.46.253.526.91.657 1.312.285 2.625.241 4.038.614 1.616.416 3.383.81 4.696 1.51.858.483 1.313 1.162.05 1.534-.858.263-2.07-.088-2.675-.285v.044c0 .022.05.044.05.044.455.767 1.161 1.183 1.11 2.256 0 .854-.605 2.015-1.009 2.497a1.432 1.432 0 0 1-1.161.591c-.505-.022-.808-.416-1.06-.657-.657-.613-1.667-.679-2.777-.745-.556-.788.15-2.058.555-2.628.454-.635 1.313-1.117 2.221-1.402-.202-.372-1.262-.613-1.615-.723-1.313-.328-2.777-.438-4.09-.613-.404-.066-.454-.263-.656-.504a2.28 2.28 0 0 1-.556-.635c.404-.306.556-.635 1.01-.963.05-.789-.1-1.884-.707-2.06.253.899.303.548.303 1.753-.454-.088-.303-.153-.808-.066-.808.11-1.716.066-2.524.22-.758.13-.758.393-1.212.569-.404.175-1.01.153-1.363.438.858.854 2.524-.197 3.837.482.555.262.96.525 1.565.766.505.197 1.414.35 1.515.854-.05.329-3.13 1.993-3.383 4.25.61-.232 1.2-.51 1.767-.833.303-.153 1.565-.942 1.868-.438.253.701-.404 2.65-.353 3.548-1.818-.087-1.01-3.22-2.171-2.146-.707.7-2.828 1.95-2.98 2.19l.607.438c.252-.087.505-.24.707-.328 1.06-.46.959-.482 1.817-1.183-.05.745-1.161 2.65-1.514 3.088-.758.964-2.373-.723-2.929-1.226-.808-.767-1.818-1.446-2.524-2.125a7.466 7.466 0 0 1-1.566-1.95 4.662 4.662 0 0 0-.454-.744c-.404.701 0 2.497.303 3.11.96 2.147 2.525 1.993 3.989 3.286a10.695 10.695 0 0 1 1.767 1.883c.858 1.205.96 3.943 1.717 5.542.39.79.92 1.503 1.565 2.102a3.351 3.351 0 0 0 2.676 1.008 15.963 15.963 0 0 1-1.767 3.154c-1.515-.175-3.13-1.424-3.535-2.519-.303-.723-.303-1.796-.404-2.65-.252-2.322-.707-5.323-2.17-7.01-.708-.81-2.07-1.335-3.232-1.379a3.788 3.788 0 0 0-1.313.066c-.202.087-.05 0-.151.11.757.437 1.615 1.51 2.221 2.321.707 1.051 1.01 1.752 1.263 3.33.228 1.362.38 2.737.454 4.117.05.613.404 1.467.151 2.037-.202.635-.706 1.03-.909 1.445.859-.043 1.06-.7 1.616-.744.303.153.303.394.202.788a5.964 5.964 0 0 1-.858 1.6l-.606.656c1.161 0 1.06-.219 1.616-.766a1.974 1.974 0 0 1 1.767-.636c.303.57.606 1.03.909 1.709.252.57.606 1.292 1.312 1.314.05-.548-.404-1.752-.505-2.365 1.364.197 2.374-.11 3.08-.855 1.364-1.533 2.727-5.19 2.828-7.337 0-.416.05-1.643-.101-1.95-.202-.197-.808 1.118-.858 1.205a2.67 2.67 0 0 1-1.465.81c-.202-.35-.1-.963-.303-1.248-.252.088-.252.241-.303.526a.967.967 0 0 1-.252.57c-.808.021-1.01-1.052-1.212-1.775-.252-.788-.505-1.752-.353-2.65.808-4.162 4.695-6.549 6.311-4.994 1.06.986-.252 1.884-1.161 2.54l-.858.658c0 .022-.051.022-.051.044.909.482 3.433-.723 4.09-1.14a18.392 18.392 0 0 0 2.726-2.65c.505-.722.96-1.642 1.616-2.321.757-.876 1.414-2.87 2.02-3.33.302-.24.605-.284.656-.744a6.883 6.883 0 0 0-1.313-.635c-1.767-.745-1.06-1.183-3.938-1.906a26.13 26.13 0 0 0-3.231-.657c-.657-.044-1.212 0-1.768-.219a2.947 2.947 0 0 1-1.06-.854c1.363-.832 2.727-1.905 3.383-3.526.707-1.687.555-4.425.353-6.418-.404.11-1.969.745-2.575.964-2.17.723-2.827.504-4.392 2.804-.491.733-.914 1.51-1.263 2.321-2.07-.175-2.979-.175-4.948.789-.303.131-.757.438-1.01.503a12.454 12.454 0 0 1-.757-3.942c0-1.205.303-6.9.808-7.447.152.11.202.657.707 1.095.331.278.62.603.858.964a47.835 47.835 0 0 1 3.03 6.877c.05.132.05.22.1.329.102.197.051.197.203.285.303-.197.505-1.577.505-1.862-.051-2.344-.91-5.541-2.323-7.294-.808-.985-1.464-1.05-2.272-2.475A5.389 5.389 0 0 1 34.99.46a.733.733 0 0 0-.151-.46c-1.818 2.519-1.717 4.074-2.172 6.965-.179.924-.28 1.862-.303 2.804a12.05 12.05 0 0 0 .91 5.168c.322.67.748 1.283 1.262 1.819.303.372 1.211 1.116 1.817 1.27zM14.036 47.55c.152-1.38.505-2.036.657-4.008.1-1.686.252-2.453.96-3.723 1.362-2.585 2.978-3.483 3.634-4.6.202-.394.05-.46.455-.7a11.675 11.675 0 0 0-1.515.043c-.808.022-.707.044-1.212.438-.604.473-1.178.986-1.716 1.533-3.636 3.593-2.424 5.476-3.232 9.835a13.668 13.668 0 0 1-.656 2.584c-.152.395-1.01 2.015-.858 2.322.05.022 0 .197.454-.066.1-.087.252-.153.353-.24 2.373-1.71 2.727-2.125 5.857-3.242 3.232-1.183 8.13-2.585 10.704-4.797a11.43 11.43 0 0 0 2.373-2.803c.707-1.358.808-2.41 1.212-3.987.404-1.752.202-3.022-.303-4.512-.202.197-.454 1.227-.555 1.534-1.111 3.175-3.736 6.22-6.16 8.322-1.363 1.183-2.928 2.497-4.847 3.417-2.07 1.008-3.484.789-5.1 2.147-.202.175-.353.35-.505.504zM0 27.378c1.495.148 2.979.389 4.443.723 1.33.259 2.6.772 3.736 1.511 2.878 1.774 3.03 2.432 6.766 3.746 4.595 1.599 8.483.372 12.522-1.753.303-.153 3.13-1.664 3.231-2.015-.454-.219-4.19.548-5.049.855-.505.175-.909.394-1.414.591-3.786 1.445-9.744.022-13.278-1.73-.91-.46-1.414-.92-2.576-1.468-.706-.306-2.221-.964-3.08-.986a13.148 13.148 0 0 1 2.02-.613c2.525-.57 3.736.066 6.312-1.818a12.09 12.09 0 0 0 1.413-1.292 21.666 21.666 0 0 1 3.838-2.957c.1-.065.252-.153.403-.24l.505-.285-1.161-.657c-.505-.263-.757-.526-1.414-.373-.932.246-1.831.607-2.676 1.073-.808.46-1.514.964-2.272 1.446l-2.221 1.511c-1.919 1.468-2.07 1.796-4.494 2.87-.909.372-1.767.7-2.727 1.007-.403.131-2.726.767-2.827.854zM2.777 5.76c.252.154 1.565.548 1.97.723C8.582 8.17 9.24 10.93 11.36 13.295c2.474 2.803 6.009 4.95 9.695 6.395 2.474.964 6.058 2.256 8.785 1.906-.96-.613-2.02-.92-3.181-1.38-1.11-.46-2.171-.898-3.282-1.402-3.938-1.796-6.766-3.548-9.694-6.527-1.313-1.336-3.282-3.81-4.544-4.818a6.58 6.58 0 0 0-.657-.504c-.252-.175-.555-.307-.706-.438a24.462 24.462 0 0 1 7.927.504c2.24.463 4.4 1.252 6.412 2.343.96.526 1.767 1.095 2.676 1.665 1.817 1.095 3.989 1.643 5.907 2.825.505.307.91.592 1.313.876.404.263.909.81 1.262.964-.202-.723-1.868-2.431-2.322-2.825a18.457 18.457 0 0 0-2.878-2.256c-4.595-2.957-9.644-4.906-15.35-5.235-1.918-.131-4.947.285-7.371.307-.252 0-2.373-.044-2.575.065zm20.55 24.115c.858.35.908.329 1.716-.022.505-.197 4.242-2.146 4.595-2.584-2.02-.132-5.857 1.402-6.311 2.606zm8.28-8.476l-1.97-1.14c-1.766-.832-5.503-2.255-7.37-2.124.717.392 1.48.693 2.271.898 1.706.225 3.372.69 4.948 1.38.505.22 1.768.701 2.121.986z" fill="#A7E200"/></svg>