<?xml version="1.0" encoding="UTF-8"?><!DOCTYPE svg PUBLIC "-//W3C//DTD SVG 1.1//EN"
        "http://www.w3.org/Graphics/SVG/1.1/DTD/svg11.dtd">
<svg xmlns="http://www.w3.org/2000/svg">
    <defs>
        <clipPath id="os-a">
            <path fill="#fff" d="M0 0h32v32H0z"/>
        </clipPath>
        <clipPath id="power-supply-a">
            <path fill="#fff" d="M0 0h32v32H0z"/>
        </clipPath>
        <clipPath id="ssd-a">
            <path fill="#fff" d="M0 0h32v32H0z"/>
        </clipPath>
        <clipPath id="vga-a">
            <path d="M0 0h24v24H0V0z" fill="#fff"/>
        </clipPath>
    </defs>
    <symbol id="icon-arrow" viewBox="0 0 16 16">
        <path d="M0 7h12.17L6.58 1.41 8 0l8 8-8 8-1.41-1.41L12.17 9H0V7z"/>
    </symbol>
    <symbol id="icon-assembly" viewBox="0 0 16 14">
        <path d="M14 5.4V3.334C14 2.6 13.4 2 12.667 2H7.333L6 .667H2C1.267.667.667 1.267.667 2v8c0 .734.6 1.334 1.333 1.334h4.8c.8 1.2 2.267 2 3.867 2 2.6 0 4.666-2.067 4.666-4.667 0-1.267-.533-2.4-1.333-3.267zM6.2 10H2V3.334h10.667v1.133c-.6-.333-1.267-.467-2-.467A4.638 4.638 0 0 0 6 8.667c0 .467.067.933.2 1.333zm4.467 2a3.3 3.3 0 0 1-3.334-3.333 3.301 3.301 0 0 1 3.334-3.333A3.3 3.3 0 0 1 14 8.667 3.3 3.3 0 0 1 10.667 12zm.666-4.666H10V6h1.333v1.334zm0 4H10V8h1.333v3.334z"/>
    </symbol>
    <symbol id="icon-basket" viewBox="0 0 20 20">
        <style>.st0{fill:none}</style>
        <path class="st0"
              d="M14.6 11c.8 0 1.4-.4 1.7-1l3.6-6.5c.1-.2.1-.3.1-.5s0-.3-.1-.5c-.1-.1-.2-.3-.4-.4-.1-.1-.3-.1-.5-.1H4.2l-.9-2H0v2h2l3.6 7.6L4.3 12c-.7 1.3.2 3 1.8 3h12v-2H6l1.1-2h7.5zM5.2 4h12.1l-2.8 5h-7L5.2 4zM6 16c-1.1 0-2 .9-2 2s.9 2 2 2 2-.9 2-2-.9-2-2-2zm10 0c-1.1 0-2 .9-2 2s.9 2 2 2 2-.9 2-2-.9-2-2-2z"/>
    </symbol>
    <symbol id="icon-btn" viewBox="0 0 4 12">
        <path d="M2 8.666a1.333 1.333 0 1 1 0 2.667 1.333 1.333 0 0 1 0-2.667zm0-4a1.333 1.333 0 1 1 0 2.667 1.333 1.333 0 0 1 0-2.667zm0-4a1.333 1.333 0 1 1 0 2.667A1.333 1.333 0 0 1 2 .666z"/>
    </symbol>
    <symbol id="icon-case" viewBox="0 0 32 32">
        <path d="M22.044 31A1.957 1.957 0 0 0 24 29.044V2.956A1.957 1.957 0 0 0 22.044 1H9.957A1.957 1.957 0 0 0 8 2.955v26.09A1.958 1.958 0 0 0 9.956 31h12.088zM9 29.044V2.956A.957.957 0 0 1 9.956 2h12.088a.956.956 0 0 1 .956.955v26.09a.956.956 0 0 1-.956.955H9.957A.956.956 0 0 1 9 29.044z"/>
        <path d="M10.5 10h11a.5.5 0 0 0 .5-.5v-6a.5.5 0 0 0-.5-.5h-11a.5.5 0 0 0-.5.5v6a.5.5 0 0 0 .5.5zM21 9H11V7h10v2zM11 4h10v2H11V4zM17.75 19.969l-.5.865a2.5 2.5 0 1 1-2.5 0l-.5-.865a3.5 3.5 0 1 0 3.5 0z"/>
        <path d="M15.5 18.5h1V23h-1v-4.5zM13.5 28H15v1h-1.5v-1zM17 28h1.5v1H17v-1zM16 11a2 2 0 0 0-1.929 1.5H11.5v1h2.571a1.99 1.99 0 0 0 3.858 0H20.5v-1h-2.571A2 2 0 0 0 16 11zm0 3a1 1 0 1 1 0-2 1 1 0 0 1 0 2z"/>
    </symbol>
    <symbol id="icon-cd-rom" viewBox="0 0 32 32">
        <path d="M25.967 18.36V1.575c0-.87-.704-1.574-1.573-1.574H7.607c-.87 0-1.574.705-1.574 1.574V18.36c0 .869.704 1.573 1.574 1.573v8.918a1.574 1.574 0 1 0 0 3.148h16.787a1.574 1.574 0 1 0 0-3.148v-8.918c.869 0 1.573-.704 1.573-1.573zm-1.049 12.066c0 .29-.235.525-.524.525H7.607a.525.525 0 0 1 0-1.05h16.787c.29 0 .524.236.524.525zm-10.51-2.269a6.82 6.82 0 0 0 8.223-8.223h.713v8.918H8.656v-8.918h.713a6.82 6.82 0 0 0 5.04 8.223zm-4.178-6.649a5.7 5.7 0 0 1 .223-1.574h11.095a5.7 5.7 0 0 1 .223 1.574 5.77 5.77 0 0 1-11.541 0zm-2.623-2.623a.525.525 0 0 1-.525-.524V1.574c0-.29.235-.525.525-.525h2.623v4.197a.525.525 0 0 0 1.049 0V1.049h4.197v4.197a.525.525 0 0 0 1.049 0V1.049h4.196v4.197a.525.525 0 0 0 1.05 0V1.049h2.622c.29 0 .525.235.525.525V18.36c0 .29-.235.524-.524.524H7.607z"/>
        <path d="M16 22.557a1.05 1.05 0 1 0 0-2.098 1.05 1.05 0 0 0 0 2.098zM8.131 18.36a.525.525 0 1 0 0-1.05.525.525 0 0 0 0 1.05zM23.869 18.36a.525.525 0 1 0 0-1.05.525.525 0 0 0 0 1.05zM8.131 2.623a.525.525 0 1 0 0-1.049.525.525 0 0 0 0 1.05zM23.869 2.623a.525.525 0 1 0 0-1.049.525.525 0 0 0 0 1.05z"/>
    </symbol>
    <symbol id="icon-close" viewBox="0 0 14 14">
        <path d="M14 1.41L12.59 0 7 5.59 1.41 0 0 1.41 5.59 7 0 12.59 1.41 14 7 8.41 12.59 14 14 12.59 8.41 7 14 1.41z"
              fill="#2C3849"/>
    </symbol>
    <symbol id="icon-close1" viewBox="0 0 14 14">
        <path d="M14 1.41L12.59 0 7 5.59 1.41 0 0 1.41 5.59 7 0 12.59 1.41 14 7 8.41 12.59 14 14 12.59 8.41 7 14 1.41z"/>
    </symbol>
    <symbol id="icon-cpu" viewBox="0 0 24 24">
        <path d="M20.4 2.274V0h-.8v2.032A2.82 2.82 0 0 0 19.2 2h-.8V0h-.8v2h-1.2V0h-.8v2h-1.2V0h-.8v2h-1.2V0h-.8v2h-1.2V0h-.8v2H8.4V0h-.8v2H6.4V0h-.8v2h-.8a2.82 2.82 0 0 0-.4.032V0h-.8v2.274A2.814 2.814 0 0 0 2.274 3.6H0v.8h2.032A2.82 2.82 0 0 0 2 4.8v.8H0v.8h2v1.2H0v.8h2v1.2H0v.8h2v1.2H0v.8h2v1.2H0v.8h2v1.2H0v.8h2v1.2H0v.8h2v.8c.001.134.012.268.032.4H0v.8h2.274c.277.58.745 1.049 1.326 1.326V24h.8v-2.032c.132.02.266.03.4.032h.8v2h.8v-2h1.2v2h.8v-2h1.2v2h.8v-2h1.2v2h.8v-2h1.2v2h.8v-2h1.2v2h.8v-2h1.2v2h.8v-2h.8c.134-.001.268-.012.4-.032V24h.8v-2.274a2.814 2.814 0 0 0 1.326-1.326H24v-.8h-2.032c.02-.133.03-.266.032-.4v-.8h2v-.8h-2v-1.2h2v-.8h-2v-1.2h2v-.8h-2v-1.2h2v-.8h-2v-1.2h2v-.8h-2V8.4h2v-.8h-2V6.4h2v-.8h-2v-.8a2.805 2.805 0 0 0-.032-.4H24v-.8h-2.274A2.814 2.814 0 0 0 20.4 2.274zm.8 16.926a2.003 2.003 0 0 1-2 2H4.8a2.003 2.003 0 0 1-2-2V4.8a2.003 2.003 0 0 1 2-2h14.4a2.003 2.003 0 0 1 2 2v14.4z"/>
        <path d="M18.8 4H5.2A1.2 1.2 0 0 0 4 5.2v13.6A1.2 1.2 0 0 0 5.2 20h13.6a1.2 1.2 0 0 0 1.2-1.2V5.2A1.2 1.2 0 0 0 18.8 4zm.4 14.8a.4.4 0 0 1-.4.4H5.2a.4.4 0 0 1-.4-.4V5.2a.4.4 0 0 1 .4-.4h13.6a.4.4 0 0 1 .4.4v13.6z"/>
        <path d="M17.6 5.6h.8v.8h-.8v-.8zM5.6 17.6h.8v.8h-.8v-.8zM5.6 6.4v1.2h.8V6.4h1.2v-.8H6.4a.8.8 0 0 0-.8.8zM17.6 17.6h-1.2v.8h2v-2h-.8v1.2z"/>
    </symbol>
    <symbol id="icon-dotted" viewBox="0 0 4 12">
        <path d="M2 8.67a1.333 1.333 0 1 1 0 2.667A1.333 1.333 0 0 1 2 8.67zm0-4a1.333 1.333 0 1 1 0 2.667A1.333 1.333 0 0 1 2 4.67zm0-4a1.333 1.333 0 1 1 0 2.667A1.333 1.333 0 0 1 2 .67z"/>
    </symbol>
    <symbol id="icon-enterLink" viewBox="0 0 11 12">
        <path d="M10.667 8l-4 4-.947-.946 2.393-2.387H.667v-8H2v6.667h6.113L5.72 4.947 6.667 4l4 4z"/>
    </symbol>
    <symbol id="icon-fan" viewBox="0 0 24 24">
        <path d="M22 0H2a2.002 2.002 0 0 0-2 2v20a2.002 2.002 0 0 0 2 2h20a2.002 2.002 0 0 0 2-2V2a2.002 2.002 0 0 0-2-2zM.8 2A1.2 1.2 0 0 1 2 .8h5.7A12.063 12.063 0 0 0 .8 7.7V2zM12 .8C18.186.8 23.2 5.814 23.2 12c0 6.186-5.014 11.2-11.2 11.2C5.814 23.2.8 18.186.8 12 .807 5.817 5.817.807 12 .8zM2 23.2A1.2 1.2 0 0 1 .8 22v-5.7a12.063 12.063 0 0 0 6.9 6.9H2zM23.2 22a1.2 1.2 0 0 1-1.2 1.2h-5.7a12.063 12.063 0 0 0 6.9-6.9V22zM16.3.8H22A1.2 1.2 0 0 1 23.2 2v5.7A12.063 12.063 0 0 0 16.3.8z"/>
        <path d="M2.4 1.2a1.2 1.2 0 1 0 0 2.4 1.2 1.2 0 0 0 0-2.4zm0 1.6a.4.4 0 1 1 0-.8.4.4 0 0 1 0 .8zM2.4 20.4a1.2 1.2 0 1 0 0 2.4 1.2 1.2 0 0 0 0-2.4zm0 1.6a.4.4 0 1 1 0-.8.4.4 0 0 1 0 .8zM21.6 22.8a1.2 1.2 0 1 0 0-2.4 1.2 1.2 0 0 0 0 2.4zm0-1.6a.4.4 0 1 1 0 .8.4.4 0 0 1 0-.8zM21.6 1.2a1.2 1.2 0 1 0 0 2.4 1.2 1.2 0 0 0 0-2.4zm0 1.6a.4.4 0 1 1 0-.8.4.4 0 0 1 0 .8zM1.863 10.64a.4.4 0 0 0 .366.096 7.958 7.958 0 0 1 5.706.773 8.743 8.743 0 0 0-5.81 3.144.4.4 0 0 0-.075.371 10.362 10.362 0 0 0 3.333 5.001.4.4 0 0 0 .64-.194 7.955 7.955 0 0 1 3.522-4.556A8.66 8.66 0 0 0 8.8 18.8c0 1.052.19 2.095.56 3.08a.4.4 0 0 0 .284.25 10.4 10.4 0 0 0 5.996-.387.4.4 0 0 0 .15-.65 7.955 7.955 0 0 1-2.183-5.328 8.747 8.747 0 0 0 5.626 3.461.4.4 0 0 0 .358-.122 10.396 10.396 0 0 0 2.665-5.386.4.4 0 0 0-.488-.455 7.961 7.961 0 0 1-5.706-.772 8.756 8.756 0 0 0 5.811-3.144.4.4 0 0 0 .074-.372 10.363 10.363 0 0 0-3.33-5 .4.4 0 0 0-.638.194 7.954 7.954 0 0 1-3.52 4.556 8.76 8.76 0 0 0 .181-6.605.4.4 0 0 0-.284-.25 10.412 10.412 0 0 0-5.996.387.4.4 0 0 0-.15.65 7.955 7.955 0 0 1 2.184 5.328 8.748 8.748 0 0 0-5.626-3.461.402.402 0 0 0-.359.12 10.395 10.395 0 0 0-2.667 5.389.4.4 0 0 0 .121.357zM12 8.8a3.198 3.198 0 0 1 1.058 6.216l-.006.003A3.2 3.2 0 1 1 12 8.8zM5.45 19.02a9.595 9.595 0 0 1-2.57-4.023 7.954 7.954 0 0 1 2.03-1.677 7.876 7.876 0 0 1 3.106-1.016c.066.874.42 1.701 1.004 2.354a8.74 8.74 0 0 0-3.57 4.362zm4.586 2.376a7.94 7.94 0 0 1 .237-5.794 3.964 3.964 0 0 0 2.54.314 8.743 8.743 0 0 0 1.991 5.267 9.609 9.609 0 0 1-4.768.213zm11.32-7.233a9.603 9.603 0 0 1-2.2 4.237 7.869 7.869 0 0 1-4.89-3.108 4.016 4.016 0 0 0 1.53-2.04 8.743 8.743 0 0 0 5.559.911h.001zM18.55 4.98a9.594 9.594 0 0 1 2.57 4.023 7.957 7.957 0 0 1-2.03 1.677 7.867 7.867 0 0 1-3.106 1.016 3.976 3.976 0 0 0-1.004-2.354 8.74 8.74 0 0 0 3.57-4.362zm-4.586-2.376a7.94 7.94 0 0 1-.237 5.794 3.965 3.965 0 0 0-2.54-.314 8.743 8.743 0 0 0-1.99-5.267 9.609 9.609 0 0 1 4.767-.213zM3.686 7.2c.33-.572.72-1.108 1.16-1.6a7.86 7.86 0 0 1 4.888 3.106 4.016 4.016 0 0 0-1.53 2.04 8.746 8.746 0 0 0-5.558-.91A9.58 9.58 0 0 1 3.686 7.2z"/>
    </symbol>
    <symbol id="icon-fb" viewBox="0 0 20 20">
        <path d="M10.001.002C4.479.002.002 4.479.002 10.001c0 4.99 3.656 9.126 8.437 9.879v-6.988h-2.54v-2.891h2.54V7.798c0-2.508 1.493-3.891 3.776-3.891 1.094 0 2.24.195 2.24.195v2.459h-1.264c-1.24 0-1.628.772-1.628 1.563v1.875h2.771l-.443 2.891h-2.328v6.988C16.344 19.129 20 14.992 20 10.001 20 4.479 15.523.002 10.001.002z"/>
    </symbol>
    <symbol id="icon-fps" viewBox="0 0 20 16">
        <path d="M19.979 4.652A5.005 5.005 0 0 0 15 0H5A4.97 4.97 0 0 0 .013 4.737C.003 4.816 0 4.898 0 4.99v7.51c0 .925.373 1.828 1.022 2.476A3.524 3.524 0 0 0 3.5 16c1.429 0 2.324-1.06 3.189-2.087.318-.377.646-.767 1-1.103.237-.226 1.102-.647 1.539-.75.252-.06 1.293-.059 1.541-.002.439.104 1.304.526 1.541.751.354.337.682.727 1 1.104C14.176 14.94 15.071 16 16.5 16c.925 0 1.828-.373 2.476-1.022A3.524 3.524 0 0 0 20 12.5V5c0-.095-.004-.18-.014-.26l-.007-.088zM18 12.5c0 .397-.159.784-.438 1.063A1.51 1.51 0 0 1 16.5 14c-.5 0-1.038-.638-1.661-1.377-.336-.397-.717-.849-1.149-1.262-.577-.549-1.821-1.098-2.461-1.249C10.813 10.015 10.28 10 10 10c-.28 0-.813.015-1.23.113-.638.15-1.882.7-2.459 1.25-.433.411-.813.862-1.149 1.26C4.538 13.362 4 14 3.5 14c-.397 0-.784-.159-1.063-.438A1.51 1.51 0 0 1 2 12.5l-.009-7.478c.01-.051.016-.103.018-.155A2.977 2.977 0 0 1 5 2h10c1.567 0 2.877 1.225 2.98 2.72 0 .06.005.12.01.12 0 .064-.003.097.01.16v7.5z"/>
        <path d="M14 9a1 1 0 1 0 0-2 1 1 0 0 0 0 2zM16 7a1 1 0 1 0 0-2 1 1 0 0 0 0 2zM14 5a1 1 0 1 0 0-2 1 1 0 0 0 0 2zM12 7a1 1 0 1 0 0-2 1 1 0 0 0 0 2zM6 8a2 2 0 1 0 0-4 2 2 0 0 0 0 4z"/>
    </symbol>
    <symbol id="icon-game" viewBox="0 0 22 22">
        <path d="M11 7a4 4 0 1 1 0 8 4 4 0 0 1 0-8zm-8.95 5H0v-2h2.05C2.5 5.83 5.83 2.5 10 2.05V0h2v2.05c4.17.45 7.5 3.78 7.95 7.95H22v2h-2.05c-.45 4.17-3.78 7.5-7.95 7.95V22h-2v-2.05C5.83 19.5 2.5 16.17 2.05 12zM11 4a7 7 0 1 0 0 14 7 7 0 0 0 0-14z"
              fill="#A7E200"/>
    </symbol>
    <symbol id="icon-hard-disk" viewBox="0 0 24 24">
        <path d="M21.375 22.16a.352.352 0 0 0-.352.352v.785H2.977V2.994a.352.352 0 0 0-.704 0v20.654c0 .195.158.352.352.352h18.75a.352.352 0 0 0 .352-.352v-1.136a.352.352 0 0 0-.352-.352zM21.375 0H2.625a.352.352 0 0 0-.352.352v1.13a.352.352 0 0 0 .704 0V.703h18.046v20.291a.352.352 0 1 0 .704 0V.352A.352.352 0 0 0 21.375 0z"/>
        <path d="M20.322 17.373a.724.724 0 0 0-.45-.67.724.724 0 0 0-.791.158l-.814.816-.354-.551 2.29-2.29a.352.352 0 0 0 .104-.249l.013-12.814c.002-.015 0 0 0-.015v-.01l-.001-.025-.004-.024c0-.004 0-.007-.002-.01a.308.308 0 0 0-.007-.029v-.004a.343.343 0 0 0-.011-.029l-.002-.004a.339.339 0 0 0-.012-.026l-.002-.005a.303.303 0 0 0-.014-.023l-.004-.006a.34.34 0 0 0-.015-.021l-.005-.007a.347.347 0 0 0-.022-.024l-.002-.001a.34.34 0 0 0-.025-.024l-.006-.004a.323.323 0 0 0-.022-.016l-.005-.003a.37.37 0 0 0-.024-.015l-.004-.002a.35.35 0 0 0-.027-.013H20.1a.348.348 0 0 0-.03-.011h-.003a.365.365 0 0 0-.03-.009h-.008l-.026-.005a.293.293 0 0 0-.035-.002H16.51a.352.352 0 0 0 0 .703h.178v.094a2.605 2.605 0 0 0 2.602 2.602h.323l-.01 9.636-2.08 2.079-.56-.876a7.155 7.155 0 0 0 2.184-5.144c0-3.942-3.206-7.148-7.148-7.148-3.942 0-7.148 3.206-7.148 7.148 0 3.942 3.206 7.148 7.148 7.148a7.155 7.155 0 0 0 3.172-.742l.614 1.352-1.268 1.269a.351.351 0 0 0-.103.248v2.116H8.96l-4.577-4.577V4.804h.326a2.604 2.604 0 0 0 2.602-2.6v-.095h7.7a.352.352 0 1 0 0-.703H4.032a.352.352 0 0 0-.351.352v15.701c0 .093.037.183.103.249l4.783 4.783a.352.352 0 0 0 .248.103h5.953a.352.352 0 0 0 .352-.352v-2.321l.978-.979.284.627-.382.383a.822.822 0 0 0-.24.584l.006 1.238c.002.45.37.816.82.816h2.83a.908.908 0 0 0 .647-.268.908.908 0 0 0 .267-.648l-.007-4.3zM19.29 4.102a1.9 1.9 0 0 1-1.899-1.899V2.11h2.225l-.002 1.993h-.324zM4.383 2.109h2.225v.094a1.9 1.9 0 0 1-1.899 1.899h-.326V2.109zm9.98 11.885l.193 1.35c.028.199.085.393.169.577l.156.345a6.45 6.45 0 0 1-2.881.68A6.453 6.453 0 0 1 5.555 10.5 6.453 6.453 0 0 1 12 4.055a6.453 6.453 0 0 1 6.445 6.445 6.452 6.452 0 0 1-1.87 4.539l-.06-.093a2.127 2.127 0 0 0-.392-.455l-1.028-.896a.441.441 0 0 0-.505-.055.442.442 0 0 0-.228.454zm1.002 1.636a1.421 1.421 0 0 1-.113-.387l-.095-.662.504.44c.102.088.19.19.263.305l2.692 4.2.059.093a.68.68 0 0 1-.279.918.684.684 0 0 1-.922-.266l-.044-.096-.302-.663-.001-.003-1.762-3.88zm4.2 6.195a.21.21 0 0 1-.15.062h-2.83a.118.118 0 0 1-.117-.117l-.006-1.239c0-.03.012-.06.034-.082l.196-.196.099.216.051.11a1.377 1.377 0 0 0 1.23.744c.228 0 .454-.056.66-.169.326-.177.563-.47.668-.825a1.377 1.377 0 0 0-.123-1.073l-.067-.107-.555-.866.924-.925c.005-.006.01-.011.025-.005.015.006.015.013.015.021l.007 4.302a.21.21 0 0 1-.062.149z"/>
        <path d="M12 7.336A3.168 3.168 0 0 0 8.836 10.5 3.168 3.168 0 0 0 12 13.664a3.168 3.168 0 0 0 3.164-3.164A3.168 3.168 0 0 0 12 7.336zm0 5.625A2.464 2.464 0 0 1 9.54 10.5 2.464 2.464 0 0 1 12 8.04a2.464 2.464 0 0 1 2.46 2.46A2.464 2.464 0 0 1 12 12.96z"/>
        <path d="M12 9.21c-.71 0-1.29.58-1.29 1.29 0 .71.58 1.29 1.29 1.29a1.29 1.29 0 0 0 0-2.578zm0 1.876a.587.587 0 1 1 .001-1.173.587.587 0 0 1-.001 1.173zM4.875 20.414a1.056 1.056 0 0 0 0 2.11 1.056 1.056 0 0 0 0-2.11zm0 1.406a.352.352 0 1 1 0-.704.352.352 0 0 1 0 .704zM18.105 20.3a.352.352 0 1 0 0-.704.352.352 0 0 0 0 .703z"/>
    </symbol>
    <symbol id="icon-home" viewBox="0 0 14 12">
        <path d="M5.667 11.333v-4h2.666v4h3.334V6h2L7 0 .333 6h2v5.333h3.334z"/>
    </symbol>
    <symbol id="icon-info" viewBox="0 0 14 14">
        <path d="M7 .6c3.536 0 6.4 2.864 6.4 6.4 0 3.536-2.864 6.4-6.4 6.4A6.398 6.398 0 0 1 .6 7C.6 3.464 3.464.6 7 .6zm.8 3.2c0-.44-.36-.8-.8-.8-.44 0-.8.36-.8.8 0 .44.36.8.8.8.44 0 .8-.36.8-.8zm0 7.2V6.2H6.2V11h1.6z"/>
    </symbol>
    <symbol id="icon-insta" viewBox="0 0 20 20">
        <path d="M10 6.876A3.13 3.13 0 0 0 6.876 10 3.13 3.13 0 0 0 10 13.124 3.13 3.13 0 0 0 13.124 10 3.13 3.13 0 0 0 10 6.876zM19.37 10c0-1.293.012-2.576-.06-3.867-.073-1.5-.415-2.831-1.512-3.928-1.1-1.1-2.428-1.44-3.928-1.512-1.294-.072-2.576-.06-3.867-.06-1.294 0-2.576-.012-3.868.06-1.5.073-2.831.415-3.928 1.512-1.1 1.1-1.439 2.428-1.512 3.928C.623 7.427.635 8.71.635 10c0 1.292-.012 2.576.06 3.867.073 1.5.415 2.832 1.512 3.929 1.1 1.099 2.428 1.439 3.928 1.511 1.294.073 2.576.061 3.867.061 1.294 0 2.576.012 3.868-.06 1.5-.073 2.83-.416 3.928-1.512 1.099-1.1 1.439-2.429 1.512-3.929.075-1.291.06-2.573.06-3.867zM10 14.807A4.8 4.8 0 0 1 5.193 10 4.8 4.8 0 0 1 10 5.193 4.8 4.8 0 0 1 14.807 10 4.8 4.8 0 0 1 10 14.807zm5.004-8.688a1.121 1.121 0 0 1-1.123-1.123c0-.62.502-1.122 1.123-1.122a1.121 1.121 0 0 1 .43 2.16 1.122 1.122 0 0 1-.43.085z"/>
    </symbol>
    <symbol id="icon-keyboard" viewBox="0 0 24 24">
        <path d="M3.2 19.408h1.6a.4.4 0 0 0 .4-.4v-1.6a.4.4 0 0 0-.4-.4H3.2a.4.4 0 0 0-.4.4v1.6a.4.4 0 0 0 .4.4zm.4-1.6h.8v.8h-.8v-.8zM6.4 19.408h11.2a.4.4 0 0 0 .4-.4v-1.6a.4.4 0 0 0-.4-.4H6.4a.4.4 0 0 0-.4.4v1.6a.4.4 0 0 0 .4.4zm.4-1.6h10.4v.8H6.8v-.8zM19.2 19.408h1.6a.4.4 0 0 0 .4-.4v-1.6a.4.4 0 0 0-.4-.4h-1.6a.4.4 0 0 0-.4.4v1.6a.4.4 0 0 0 .4.4zm.4-1.6h.8v.8h-.8v-.8zM3.2 16.209h1.6a.4.4 0 0 0 .4-.4v-1.6a.4.4 0 0 0-.4-.4H3.2a.4.4 0 0 0-.4.4v1.6a.4.4 0 0 0 .4.4zm.4-1.6h.8v.8h-.8v-.8zM6.4 16.209H8a.4.4 0 0 0 .4-.4v-1.6a.4.4 0 0 0-.4-.4H6.4a.4.4 0 0 0-.4.4v1.6a.4.4 0 0 0 .4.4zm.4-1.6h.8v.8h-.8v-.8zM9.6 16.209h1.6a.4.4 0 0 0 .4-.4v-1.6a.4.4 0 0 0-.4-.4H9.6a.4.4 0 0 0-.4.4v1.6a.4.4 0 0 0 .4.4zm.4-1.6h.8v.8H10v-.8zM12.8 16.209h1.6a.4.4 0 0 0 .4-.4v-1.6a.4.4 0 0 0-.4-.4h-1.6a.4.4 0 0 0-.4.4v1.6a.4.4 0 0 0 .4.4zm.4-1.6h.8v.8h-.8v-.8zM16 16.209h1.6a.4.4 0 0 0 .4-.4v-1.6a.4.4 0 0 0-.4-.4H16a.4.4 0 0 0-.4.4v1.6a.4.4 0 0 0 .4.4zm.4-1.6h.8v.8h-.8v-.8zM19.2 16.209h1.6a.4.4 0 0 0 .4-.4v-1.6a.4.4 0 0 0-.4-.4h-1.6a.4.4 0 0 0-.4.4v1.6a.4.4 0 0 0 .4.4zm.4-1.6h.8v.8h-.8v-.8zM3.2 13.01h1.6a.4.4 0 0 0 .4-.4v-1.6a.4.4 0 0 0-.4-.4H3.2a.4.4 0 0 0-.4.4v1.6a.4.4 0 0 0 .4.4zm.4-1.6h.8v.8h-.8v-.8zM6.4 13.01H8a.4.4 0 0 0 .4-.4v-1.6a.4.4 0 0 0-.4-.4H6.4a.4.4 0 0 0-.4.4v1.6a.4.4 0 0 0 .4.4zm.4-1.6h.8v.8h-.8v-.8zM9.6 13.01h1.6a.4.4 0 0 0 .4-.4v-1.6a.4.4 0 0 0-.4-.4H9.6a.4.4 0 0 0-.4.4v1.6a.4.4 0 0 0 .4.4zm.4-1.6h.8v.8H10v-.8zM12.8 13.01h1.6a.4.4 0 0 0 .4-.4v-1.6a.4.4 0 0 0-.4-.4h-1.6a.4.4 0 0 0-.4.4v1.6a.4.4 0 0 0 .4.4zm.4-1.6h.8v.8h-.8v-.8zM16 13.01h1.6a.4.4 0 0 0 .4-.4v-1.6a.4.4 0 0 0-.4-.4H16a.4.4 0 0 0-.4.4v1.6a.4.4 0 0 0 .4.4zm.4-1.6h.8v.8h-.8v-.8zM19.2 13.01h1.6a.4.4 0 0 0 .4-.4v-1.6a.4.4 0 0 0-.4-.4h-1.6a.4.4 0 0 0-.4.4v1.6a.4.4 0 0 0 .4.4zm.4-1.6h.8v.8h-.8v-.8z"/>
        <path d="M22.4 4.208H5.414l-.68-1.022a.4.4 0 0 0-.334-.178H2a.4.4 0 0 0-.4.4H.4a.4.4 0 0 0-.4.4v1.6a.4.4 0 0 0 .4.4h1.2a.4.4 0 0 0 .4.4h2.4a.4.4 0 0 0 .333-.178l.681-1.022H22.4a.8.8 0 0 1 0 1.6h-9.2a1.6 1.6 0 0 0-1.6 1.6v.8H2.4a1.2 1.2 0 0 0-1.2 1.2v9.6a1.2 1.2 0 0 0 1.2 1.2h19.2a1.2 1.2 0 0 0 1.2-1.2v-9.6a1.2 1.2 0 0 0-1.2-1.2h-9.2v-.8a.8.8 0 0 1 .8-.8h9.2a1.6 1.6 0 0 0 0-3.2zm-21.6.8v-.8h.8v.8H.8zm3.386.4H2.4v-1.6h1.786l.534.8-.534.8zM22 10.208v9.6a.4.4 0 0 1-.4.4H2.4a.4.4 0 0 1-.4-.4v-9.6a.4.4 0 0 1 .4-.4h19.2a.4.4 0 0 1 .4.4z"/>
    </symbol>
    <symbol id="icon-like" viewBox="0 0 14 13">
        <path d="M12.333 4.333H8.592l.749-2.244A1.338 1.338 0 0 0 9.157.887 1.34 1.34 0 0 0 8.075.333H7a.669.669 0 0 0-.513.24l-3.133 3.76H1.667c-.736 0-1.334.598-1.334 1.334v6C.333 12.402.931 13 1.667 13h8.871a1.34 1.34 0 0 0 1.249-.865l1.838-4.901A.668.668 0 0 0 13.667 7V5.667c0-.736-.598-1.334-1.334-1.334zM1.667 5.667H3v6H1.667v-6zm10.666 1.212l-1.795 4.788H4.333V5.24l2.979-3.574h.764L7.035 4.789a.665.665 0 0 0 .632.878h4.666v1.212z"/>
    </symbol>
    <symbol id="icon-logo" viewBox="0 0 137 124">
        <path fill-rule="evenodd" clip-rule="evenodd"
              d="M100.026 33.796c4.285-6.505 3.061-3.226 7.101-6.928 1.469-1.323 6.489-4.496 8.693-5.29 1.101 4.708-1.102 7.564-2.939 10.367-1.224 1.851-4.04 7.404-5.142 8.25-.612-.475-.857-1.428-1.224-2.274-1.102-2.697-5.142-3.437-6.489-4.125zM88.15 43.528c-.49-.9-1.469-1.957-2.081-2.962-.368-.635-1.592-2.645-1.592-3.385a39.142 39.142 0 0 1 6.611.159c1.898.258 3.779.629 5.632 1.11.245.212-.245 2.539-.245 3.015.613-.74.735-2.063 1.225-2.75 2.938.528 6.244 4.971 7.713 7.298.734 1.111.612 1.27 2.204 1.587 3.183.688 6.366.582 9.794 1.48 3.918 1.006 8.203 1.958 11.386 3.65 2.081 1.164 3.183 2.803.123 3.703-2.082.634-5.02-.212-6.489-.688v.106c0 .053.122.105.122.105 1.102 1.852 2.816 2.856 2.694 5.448 0 2.063-1.47 4.866-2.449 6.03a3.467 3.467 0 0 1-2.816 1.427c-1.224-.053-1.959-1.005-2.571-1.586-1.592-1.481-4.04-1.64-6.734-1.799-1.346-1.904.368-4.971 1.347-6.346 1.102-1.534 3.183-2.698 5.387-3.385-.49-.9-3.061-1.481-3.918-1.745-3.183-.794-6.733-1.058-9.917-1.481-.979-.16-1.101-.635-1.591-1.217a5.501 5.501 0 0 1-1.347-1.534c.98-.74 1.347-1.533 2.449-2.327.122-1.904-.245-4.548-1.714-4.971.612 2.168.734 1.322.734 4.23-1.102-.21-.734-.37-1.959-.158-1.959.265-4.162.159-6.121.53-1.837.316-1.837.951-2.939 1.374-.979.423-2.448.37-3.305 1.058 2.081 2.063 6.121-.476 9.305 1.164 1.346.634 2.326 1.269 3.795 1.85 1.224.477 3.428.847 3.673 2.063-.123.794-7.59 4.813-8.203 10.26a30.69 30.69 0 0 0 4.285-2.01c.735-.37 3.795-2.273 4.53-1.057.612 1.693-.979 6.4-.857 8.568-4.408-.211-2.449-7.774-5.265-5.183-1.714 1.693-6.856 4.707-7.223 5.289l1.47 1.058c.611-.212 1.223-.582 1.713-.793 2.571-1.111 2.326-1.164 4.408-2.856-.123 1.798-2.816 6.399-3.673 7.457-1.837 2.327-5.754-1.746-7.101-2.962-1.959-1.851-4.408-3.49-6.122-5.13a18.042 18.042 0 0 1-3.795-4.707c-.31-.633-.68-1.235-1.102-1.799-.98 1.693 0 6.03.735 7.51 2.326 5.184 6.121 4.814 9.672 7.934a25.879 25.879 0 0 1 4.285 4.548c2.081 2.91 2.326 9.52 4.162 13.381a17.511 17.511 0 0 0 3.796 5.078 8.132 8.132 0 0 0 6.489 2.433 38.619 38.619 0 0 1-4.285 7.616c-3.673-.424-7.591-3.438-8.57-6.083-.735-1.745-.735-4.337-.98-6.4-.612-5.605-1.714-12.851-5.265-16.924-1.714-1.956-5.02-3.226-7.835-3.332a9.222 9.222 0 0 0-3.183.159c-.49.212-.123 0-.368.264 1.837 1.058 3.918 3.65 5.387 5.607 1.714 2.538 2.449 4.23 3.061 8.039.554 3.29.922 6.61 1.102 9.943.122 1.481.98 3.543.367 4.919-.49 1.533-1.714 2.485-2.204 3.49 2.082-.105 2.571-1.692 3.918-1.798.735.37.735.952.49 1.904a14.369 14.369 0 0 1-2.081 3.861l-1.47 1.587c2.816 0 2.572-.529 3.918-1.851a4.79 4.79 0 0 1 4.285-1.534c.735 1.375 1.47 2.485 2.204 4.125.612 1.375 1.47 3.121 3.183 3.173.123-1.322-.98-4.231-1.224-5.712 3.306.476 5.754-.264 7.468-2.062 3.306-3.703 6.611-12.535 6.856-17.718 0-1.005.123-3.967-.245-4.707-.489-.476-1.958 2.697-2.081 2.909a6.473 6.473 0 0 1-3.55 1.957c-.49-.847-.245-2.328-.735-3.015-.612.212-.612.582-.735 1.27a2.326 2.326 0 0 1-.612 1.374c-1.958.053-2.448-2.538-2.938-4.284-.612-1.904-1.224-4.23-.857-6.4 1.959-10.048 11.386-15.813 15.304-12.058 2.571 2.38-.612 4.549-2.816 6.135l-2.081 1.587c0 .053-.123.053-.123.106 2.204 1.163 8.325-1.746 9.917-2.75a44.503 44.503 0 0 0 6.611-6.4c1.225-1.745 2.326-3.967 3.918-5.606 1.837-2.116 3.428-6.929 4.897-8.04.735-.581 1.469-.687 1.592-1.798a16.744 16.744 0 0 0-3.183-1.533c-4.285-1.799-2.571-2.856-9.55-4.602a63.619 63.619 0 0 0-7.835-1.586c-1.592-.106-2.939 0-4.285-.53a7.135 7.135 0 0 1-2.571-2.062c3.305-2.01 6.611-4.601 8.202-8.515 1.714-4.073 1.347-10.684.857-15.497-.979.265-4.774 1.799-6.244 2.328-5.264 1.745-6.856 1.216-10.651 6.77a34.761 34.761 0 0 0-3.06 5.606c-5.02-.423-7.224-.423-11.999 1.904-.735.317-1.837 1.057-2.449 1.216a29.972 29.972 0 0 1-1.836-9.52c0-2.909.734-16.66 1.959-17.982.367.264.49 1.586 1.714 2.644.803.67 1.504 1.455 2.081 2.327a115.282 115.282 0 0 1 7.346 16.607c.123.318.123.53.245.794.245.476.122.476.49.687.734-.476 1.224-3.808 1.224-4.495-.123-5.66-2.204-13.381-5.632-17.612-1.959-2.38-3.55-2.539-5.51-5.977a12.993 12.993 0 0 1-1.469-3.014A1.765 1.765 0 0 0 84.477 0c-4.407 6.082-4.162 9.837-5.264 16.819a40.511 40.511 0 0 0-.735 6.77 29.05 29.05 0 0 0 2.204 12.481 16.989 16.989 0 0 0 3.06 4.39c.735.9 2.939 2.697 4.408 3.068zm-54.114 71.294c.367-3.332 1.224-4.919 1.591-9.679.245-4.072.612-5.923 2.327-8.99 3.305-6.242 7.223-8.41 8.815-11.108.49-.951.122-1.11 1.101-1.692a28.392 28.392 0 0 0-3.672.106c-1.96.052-1.715.105-2.939 1.057a42.825 42.825 0 0 0-4.162 3.703c-8.816 8.674-5.877 13.222-7.836 23.747a32.902 32.902 0 0 1-1.592 6.241c-.367.952-2.448 4.866-2.08 5.606.122.053 0 .476 1.1-.159.246-.211.613-.37.858-.581 5.754-4.126 6.611-5.131 14.202-7.828 7.835-2.856 19.711-6.241 25.955-11.583a27.682 27.682 0 0 0 5.755-6.77c1.714-3.279 1.958-5.817 2.938-9.625.98-4.231.49-7.299-.735-10.895-.49.476-1.102 2.961-1.347 3.702-2.693 7.669-9.06 15.02-14.936 20.098-3.306 2.856-7.101 6.029-11.753 8.25-5.02 2.433-8.448 1.904-12.366 5.183-.49.423-.857.847-1.224 1.217zM0 66.112c3.624.355 7.223.938 10.774 1.745a25.645 25.645 0 0 1 9.06 3.649c6.978 4.284 7.346 5.87 16.405 9.044 11.142 3.86 20.569.899 30.363-4.231.735-.37 7.591-4.02 7.836-4.866-1.102-.529-10.162 1.322-12.243 2.063-1.224.423-2.204.952-3.428 1.428-9.183 3.49-23.63.052-32.2-4.179-2.203-1.11-3.427-2.221-6.243-3.543-1.714-.74-5.387-2.327-7.469-2.38a31.956 31.956 0 0 1 4.898-1.481c6.121-1.375 9.06.159 15.303-4.39a29.504 29.504 0 0 0 3.428-3.12 52.501 52.501 0 0 1 9.305-7.14c.245-.159.612-.37.98-.582l1.224-.688-2.816-1.586c-1.224-.635-1.836-1.27-3.428-.9a28.402 28.402 0 0 0-6.489 2.592c-1.959 1.11-3.673 2.327-5.51 3.49-1.713 1.164-3.672 2.487-5.386 3.65-4.652 3.544-5.02 4.337-10.897 6.929-2.203.899-4.285 1.692-6.61 2.433-.98.317-6.612 1.85-6.857 2.062zM6.734 13.91c.612.37 3.795 1.322 4.774 1.745 9.305 4.072 10.897 10.737 16.039 16.449 5.999 6.77 14.57 11.953 23.507 15.443 5.999 2.327 14.691 5.448 21.303 4.601-2.326-1.48-4.898-2.22-7.713-3.332-2.694-1.11-5.265-2.168-7.958-3.384-9.55-4.337-16.406-8.568-23.507-15.761-3.184-3.227-7.958-9.203-11.019-11.636a15.963 15.963 0 0 0-1.591-1.216c-.613-.423-1.347-.74-1.715-1.058 6.431-.64 12.923-.23 19.222 1.216a56.875 56.875 0 0 1 15.549 5.66c2.326 1.269 4.285 2.644 6.489 4.019 4.407 2.644 9.672 3.967 14.324 6.823 1.224.74 2.204 1.428 3.183 2.115.98.635 2.204 1.957 3.06 2.327-.489-1.745-4.53-5.87-5.63-6.822a44.722 44.722 0 0 0-6.98-5.448c-11.14-7.14-23.384-11.847-37.218-12.64-4.653-.318-11.999.687-17.875.74-.612 0-5.755-.106-6.244.159zm49.829 58.23c2.081.847 2.204.794 4.163-.052 1.224-.476 10.284-5.183 11.14-6.241-4.896-.318-14.201 3.385-15.303 6.294zm20.079-20.468l-4.775-2.75c-4.285-2.01-13.345-5.447-17.875-5.13a24.266 24.266 0 0 0 5.51 2.169 44.453 44.453 0 0 1 11.997 3.331c1.225.53 4.286 1.693 5.143 2.38z"/>
    </symbol>
    <symbol id="icon-masseg" viewBox="0 0 16 16">
        <path d="M3.333 12v2.51l1.01-.605L7.518 12h3.149c.735 0 1.333-.598 1.333-1.333V5.333C12 4.598 11.402 4 10.667 4h-8c-.736 0-1.334.598-1.334 1.333v5.334c0 .735.598 1.333 1.334 1.333h.666zm-.666-6.667h8v5.334H7.149l-2.482 1.489v-1.49h-2V5.334z"/>
        <path d="M13.333 1.333h-8C4.598 1.333 4 1.931 4 2.667h8c.735 0 1.333.598 1.333 1.333v5.333c.736 0 1.334-.598 1.334-1.333V2.667c0-.736-.598-1.334-1.334-1.334z"/>
    </symbol>
    <symbol id="icon-menu" viewBox="0 0 20 12">
        <path d="M0 0h20v2H0V0zm0 5h20v2H0V5zm0 5h15v2H0v-2z"/>
    </symbol>
    <symbol id="icon-mobile_konfig" viewBox="0 0 20 20">
        <style>.st0{fill:#a7e200}</style>
        <path class="st0"
              d="M19.7 18.3l-1.4 1.4c-.2.2-.4.3-.7.3-.3 0-.5-.1-.7-.3L5 7.9c-.3 0-.7.1-1 .1-.6 0-1.3-.2-1.8-.4-.6-.3-1.1-.8-1.5-1.3C.4 5.8.1 5.2 0 4.6c0-.7 0-1.3.2-1.9l2.5 2.5.5-.5 1.4-1.4.5-.5L2.7.2C3.3 0 3.9 0 4.6 0c.6.1 1.2.3 1.7.7.5.4.9.9 1.2 1.4.3.6.5 1.3.5 1.9 0 .3-.1.7-.1 1l11.9 11.9c.2.2.3.4.3.7-.1.2-.2.5-.4.7zM.3 16.9c-.2.2-.3.4-.3.7 0 .3.1.5.3.7l1.4 1.4c.2.2.5.3.7.3.3 0 .5-.1.7-.3l5.5-5.5-2.8-2.8-5.5 5.5zM18 0l-4 2v2l-2.2 2.2 2 2L16 6h2l2-4-2-2z"/>
    </symbol>
    <symbol id="icon-monitor" viewBox="0 0 24 24">
        <path d="M22.8.8H1.2A1.2 1.2 0 0 0 0 2v14.4a1.2 1.2 0 0 0 1.2 1.2h8.4v3.2h-4a.4.4 0 0 0-.4.4v1.6a.4.4 0 0 0 .4.4h12.8a.4.4 0 0 0 .4-.4v-1.6a.4.4 0 0 0-.4-.4h-4v-3.2h8.4a1.2 1.2 0 0 0 1.2-1.2V2A1.2 1.2 0 0 0 22.8.8zm-21.6.8h21.6a.4.4 0 0 1 .4.4v12.4H.8V2a.4.4 0 0 1 .4-.4zM18 22.4H6v-.8h12v.8zm-4.4-1.6h-3.2v-3.2h3.2v3.2zm9.6-4.4a.4.4 0 0 1-.4.4H22V16h-.8v.8h-.8V16h-.8v.8H1.2a.4.4 0 0 1-.4-.4v-1.2h22.4v1.2z"/>
        <path d="M2.4 3.202h1.2v-.8H2.4a.8.8 0 0 0-.8.8v1.2h.8v-1.2z"/>
    </symbol>
    <symbol id="icon-motherboard" viewBox="0 0 24 24">
        <path d="M22.8 0H1.2A1.2 1.2 0 0 0 0 1.2v21.6A1.2 1.2 0 0 0 1.2 24h21.6a1.2 1.2 0 0 0 1.2-1.2V1.2A1.2 1.2 0 0 0 22.8 0zm.4 22.8a.4.4 0 0 1-.4.4H1.2a.4.4 0 0 1-.4-.4V1.2c0-.22.18-.4.4-.4h21.6c.22 0 .4.18.4.4v21.6z"/>
        <path d="M21.2 2.4H8.4a.4.4 0 0 0-.4.4v1.6c0 .22.179.4.4.4h12.8a.4.4 0 0 0 .4-.4V2.8a.4.4 0 0 0-.4-.4zM20.8 4h-12v-.8h12V4zM21.2 5.6H8.4A.4.4 0 0 0 8 6v1.6c0 .22.179.4.4.4h12.8a.4.4 0 0 0 .4-.4V6a.4.4 0 0 0-.4-.4zm-.4 1.6h-12v-.8h12v.8zM21.2 8.8H8.4a.4.4 0 0 0-.4.4v1.6c0 .22.179.4.4.4h12.8a.4.4 0 0 0 .4-.4V9.2a.4.4 0 0 0-.4-.4zm-.4 1.6h-12v-.8h12v.8zM20.4 12.8a1.2 1.2 0 1 0 0 2.4 1.2 1.2 0 0 0 0-2.4zm0 1.6a.4.4 0 1 1 0-.8.4.4 0 0 1 0 .8zM20.4 16a1.2 1.2 0 1 0 0 2.4 1.2 1.2 0 0 0 0-2.4zm0 1.6a.4.4 0 1 1 0-.8.4.4 0 0 1 0 .8zM20.4 19.2a1.2 1.2 0 1 0 0 2.4 1.2 1.2 0 0 0 0-2.4zm0 1.6a.4.4 0 1 1 0-.8.4.4 0 0 1 0 .8zM17.6 12.8h-7.2a.8.8 0 0 0-.8.8v7.2a.8.8 0 0 0 .8.8h7.2a.8.8 0 0 0 .8-.8v-7.2a.8.8 0 0 0-.8-.8zm0 8h-7.2v-7.2h7.2v7.2z"/>
        <path d="M12.4 19.6h3.2a.8.8 0 0 0 .8-.8v-3.2a.8.8 0 0 0-.8-.8h-3.2a.8.8 0 0 0-.8.8v3.2a.8.8 0 0 0 .8.8zm0-4h3.2v3.2h-3.2v-3.2zM2.8 11.2h4a.4.4 0 0 0 .4-.4v-4a.4.4 0 0 0-.4-.4h-4a.4.4 0 0 0-.4.4v4c0 .221.18.4.4.4zm.4-4h3.2v3.2H3.2V7.2zM2.8 5.6h4a.4.4 0 0 0 .4-.4V2.8a.4.4 0 0 0-.4-.4h-4a.4.4 0 0 0-.4.4v2.4c0 .22.18.4.4.4zm.4-2.4h3.2v1.6H3.2V3.2zM7.6 13.6H2.8a.4.4 0 0 0-.4.4v7.2c0 .221.18.4.4.4h4.8a.4.4 0 0 0 .4-.4V14a.4.4 0 0 0-.4-.4zm-2 3.2h1.6v1.6H5.6v-1.6zm-.8 1.6H3.2v-1.6h1.6v1.6zm2.4-4V16H5.6v-1.6h1.6zm-4 0h1.6V16H3.2v-1.6zm0 4.8h1.6v1.6H3.2v-1.6zm4 1.6H5.6v-1.6h1.6v1.6z"/>
    </symbol>
    <symbol id="icon-mouse" viewBox="0 0 24 24">
        <path d="M17.996 3.127L10.84.949a1.716 1.716 0 0 0-2.216 1.642v3.252l-1.39 1.39a.375.375 0 0 0-.11.265v1.72l-2.186 2.186a1.489 1.489 0 0 0-.439 1.06v5.347a1.507 1.507 0 0 0 .6 1.2L9 21.936a6.603 6.603 0 0 0 3.938 1.312 6.57 6.57 0 0 0 6.562-6.562V5.156a2.122 2.122 0 0 0-1.504-2.03zm.684 1.596c.046.14.07.286.07.434v4.36l-3-1.5V5.248a.375.375 0 0 0-.375-.375h-.75V2.885l3.152.96a1.374 1.374 0 0 1 .903.878zm-3.68.9v2.25h-1.5v-2.25H15zM9.805 1.787a.962.962 0 0 1 .818-.12l3.252.99v2.216h-.75a.375.375 0 0 0-.375.375v2.759L9.375 9.541v-6.95a.964.964 0 0 1 .43-.804zm-1.18 11.336H7.5v-1.125h1.125v1.125zm-1.125.75h1.125v1.125H7.5v-1.125zm1.95 7.463l-3.9-2.925a.753.753 0 0 1-.3-.6v-.589l5.395 3.808c.316.224.694.344 1.081.343h4.644a5.78 5.78 0 0 1-3.433 1.125 5.849 5.849 0 0 1-3.487-1.162zm7.759-.713h-5.483a1.12 1.12 0 0 1-.649-.206L5.25 16.305v-3.84a.745.745 0 0 1 .22-.53L7.765 9.64c.07-.07.11-.166.11-.266v-1.72l.75-.75v4.345h-1.5a.375.375 0 0 0-.375.375v3.75a.375.375 0 0 0 .375.375h1.5v1.875h.75v-7.258l3.831-1.742h2.08l3.464 1.732v6.33a5.79 5.79 0 0 1-1.541 3.938z"/>
        <path d="M14.625 9.75h-.75a.751.751 0 0 0-.75.75V12a.75.75 0 0 0 .75.75h.75a.75.75 0 0 0 .75-.75v-1.5a.75.75 0 0 0-.75-.75zm0 2.25h-.75v-1.5h.75V12z"/>
    </symbol>
    <symbol id="icon-odnk" viewBox="0 0 20 20">
        <path d="M2.814 0A2.808 2.808 0 0 0 0 2.814v14.372A2.808 2.808 0 0 0 2.814 20h14.372A2.808 2.808 0 0 0 20 17.186V2.814A2.808 2.808 0 0 0 17.186 0H2.814zm7.634 2.044a4.12 4.12 0 0 1 4.115 4.115 4.119 4.119 0 0 1-4.115 4.115 4.12 4.12 0 0 1-4.116-4.115 4.12 4.12 0 0 1 4.116-4.115zm-.044 2.411c-.919.023-1.66.78-1.66 1.704 0 .94.765 1.704 1.704 1.704a1.705 1.705 0 0 0 0-3.408h-.044zm-3.363 5.959c.218 0 .438.06.636.185a5.227 5.227 0 0 0 5.541 0 1.206 1.206 0 1 1 1.284 2.042 7.707 7.707 0 0 1-2.39.99l2.302 2.3a1.205 1.205 0 1 1-1.705 1.706l-2.262-2.261-2.26 2.26a1.202 1.202 0 0 1-1.705 0 1.205 1.205 0 0 1 0-1.704l2.3-2.301a7.727 7.727 0 0 1-2.39-.99 1.206 1.206 0 0 1 .649-2.227z"/>
    </symbol>
    <symbol id="icon-ok" viewBox="0 0 16 16">
        <path fill-rule="evenodd" clip-rule="evenodd"
              d="M13.882 4.288c.064.092.104.2.115.312.007.072.64 7.178-5.726 10.01a.658.658 0 0 1-.542 0C1.363 11.777 1.996 4.67 2.003 4.6a.668.668 0 0 1 .365-.53l5.333-2.667a.667.667 0 0 1 .597 0l5.333 2.667c.101.05.188.125.251.218zM3.311 5.09c-.037 1.338.176 5.993 4.689 8.175 4.467-2.164 4.71-6.85 4.686-8.176L8 2.745 3.31 5.09zm2.494 1.772L7.333 8.39l2.862-2.862.943.942-3.805 3.805-2.471-2.471.943-.943z"/>
    </symbol>
    <symbol id="icon-os" viewBox="0 0 32 32">
        <g clip-path="url(#os-a)">
            <path d="M14.653 2.586v12.983h17.24V0l-17.24 2.586zm16.162 11.906H15.73V3.502l15.084-2.21v13.2zM.108 15.73h13.468V2.693L.108 4.687V15.73zM1.185 5.602l11.313-1.67v10.721H1.185v-9.05zM14.653 29.415L31.893 32V16.809h-17.24v12.606zm1.078-11.529h15.084v12.876L15.73 28.498V17.886zM.108 27.314l13.468 1.993V16.809H.108v10.505zm1.077-9.428h11.313v10.182l-11.313-1.67v-8.512z"/>
        </g>
    </symbol>
    <symbol id="icon-pagin" viewBox="0 0 16 16">
        <path d="M0 7h12.17L6.58 1.41 8 0l8 8-8 8-1.41-1.41L12.17 9H0V7z"/>
    </symbol>
    <symbol id="icon-periphery" viewBox="0 0 12 14">
        <path d="M12 10a.66.66 0 0 1-.353.586l-5.267 2.96a.63.63 0 0 1-.38.12.63.63 0 0 1-.38-.12l-5.267-2.96A.66.66 0 0 1 0 10V4a.66.66 0 0 1 .353-.587L5.62.453A.63.63 0 0 1 6 .333c.14 0 .273.04.38.12l5.267 2.96A.66.66 0 0 1 12 4v6zM6 1.766l-1.26.714 3.927 2.26L9.973 4 6 1.766zM2.027 4L6 6.233 7.307 5.5l-3.92-2.267L2.027 4zm-.694 5.606l4 2.254V7.386l-4-2.246v4.466zm9.334 0V5.14l-4 2.246v4.474l4-2.254z"/>
    </symbol>
    <symbol id="icon-power-supply" viewBox="0 0 32 32">
        <g clip-path="url(#power-supply-a)">
            <path d="M31.96 7.532l-.003-.01-1.6-3.733a.533.533 0 0 0-.49-.324H2.13a.533.533 0 0 0-.49.323L.04 7.522v.01a.523.523 0 0 0-.037.177c0 .008-.004.014-.004.022v20.27c0 .294.239.533.533.533h30.934A.533.533 0 0 0 32 28V7.732c0-.008-.004-.014-.004-.023a.536.536 0 0 0-.036-.177zm-29.478-3h27.033l1.142 2.666H1.34l1.142-2.666zm28.451 22.935H1.064V8.265h29.87v19.202z"/>
            <path d="M23.089 16.642c.1.1.236.157.377.157h4.267a.533.533 0 0 0 .377-.157l1.6-1.6c.1-.1.156-.236.156-.377v-2.667a.533.533 0 0 0-.533-.533h-7.467a.533.533 0 0 0-.534.533v2.667c0 .142.057.277.157.377l1.6 1.6zm-.69-4.11h6.4v1.912l-1.287 1.288h-3.825l-1.288-1.288v-1.912z"/>
            <path d="M24.378 13.976a.625.625 0 0 0 .112-.176.533.533 0 1 0-.112.176zM25.397 15.156c.198.085.429.04.581-.112a.622.622 0 0 0 .112-.176.529.529 0 0 0-.286-.698.533.533 0 0 0-.738.495.526.526 0 0 0 .155.38.61.61 0 0 0 .176.111zM26.821 13.976a.54.54 0 0 0 .757 0 .624.624 0 0 0 .112-.176.532.532 0 0 0 .043-.202.56.56 0 0 0-.155-.38.543.543 0 0 0-.485-.143.339.339 0 0 0-.096.032.419.419 0 0 0-.096.048.868.868 0 0 0-.08.064.556.556 0 0 0-.155.379c-.002.07.013.139.043.202a.616.616 0 0 0 .112.176zM28.8 21.066h-6.4a.533.533 0 0 0-.534.534v3.2c0 .295.239.533.533.533h6.4a.533.533 0 0 0 .534-.533v-3.2a.533.533 0 0 0-.533-.534zm-5.867 1.067h2.133v2.134h-2.133v-2.134zm5.334 2.134h-2.134v-2.134h2.134v2.134zM2.664 26.4h2.134v-1.067h-1.6v-1.6H2.13v2.133c0 .294.239.533.533.533zM18.132 11.999H19.2V9.865a.533.533 0 0 0-.533-.533h-2.134v1.067h1.6v1.6zM3.198 10.399h1.6V9.332H2.664a.533.533 0 0 0-.533.533V12h1.067v-1.6zM18.132 25.333h-1.6v1.066h2.134a.533.533 0 0 0 .533-.533v-2.134h-1.067v1.6zM10.665 9.865a8 8 0 1 0 8 8 8.01 8.01 0 0 0-8-8zm4.506 11.753a5.851 5.851 0 0 0 0-7.504l.753-.754a6.899 6.899 0 0 1 0 9.011l-.753-.753zm-1.84-3.752c0 .522-.154 1.033-.444 1.468l-.782-.783c.214-.432.214-.939 0-1.37l.783-.784c.29.436.444.947.444 1.469zm-5.333 0c0-.523.155-1.034.444-1.468l.783.782a1.544 1.544 0 0 0 0 1.371l-.783.783a2.65 2.65 0 0 1-.444-1.468zm2.134 0a.533.533 0 1 1 1.066 0 .533.533 0 0 1-1.066 0zm1.218-1.44a1.543 1.543 0 0 0-1.37 0l-.784-.783a2.648 2.648 0 0 1 2.937 0l-.783.783zm-1.37 2.88c.431.214.938.214 1.37 0l.783.783a2.65 2.65 0 0 1-2.936 0l.782-.783zm2.916-4.427a3.704 3.704 0 0 0-4.463 0l-.761-.761a4.778 4.778 0 0 1 5.986 0l-.761.76zm-5.218.755a3.704 3.704 0 0 0 0 4.464l-.761.76a4.778 4.778 0 0 1 0-5.985l.76.761zm.755 5.219a3.704 3.704 0 0 0 4.463 0l.761.76a4.778 4.778 0 0 1-5.985 0l.761-.76zm5.219-.755a3.704 3.704 0 0 0 0-4.464l.76-.76a4.778 4.778 0 0 1 0 5.985l-.76-.761zm1.52-7.492l-.755.754a5.851 5.851 0 0 0-7.503 0l-.754-.754a6.9 6.9 0 0 1 9.011 0zm-9.767.754l.754.754a5.852 5.852 0 0 0 0 7.504l-.754.753a6.9 6.9 0 0 1 0-9.01zm.754 9.765l.754-.753a5.85 5.85 0 0 0 7.503 0l.754.753a6.9 6.9 0 0 1-9.01 0z"/>
        </g>
    </symbol>
    <symbol id="icon-ram" viewBox="0 0 24 24">
        <path d="M2.438 18.343a.374.374 0 0 0 .53 0l.297-.297a.156.156 0 1 1 .22.22l-.298.297a.375.375 0 0 0 0 .53l.938.938a.376.376 0 0 0 .265.11.374.374 0 0 0 .266-.11l.264-.266a.154.154 0 0 1 .11-.045.155.155 0 0 1 .11.265l-.265.265a.375.375 0 0 0 0 .53l2.36 2.36c.07.07.166.11.265.11h.002a.373.373 0 0 0 .266-.113l15.375-15.75a.375.375 0 0 0-.003-.527l-2.25-2.25a.375.375 0 0 0-.53 0l-.22.22a.155.155 0 1 1-.22-.22l.22-.22a.375.375 0 0 0 0-.53l-.75-.75a.375.375 0 0 0-.53 0l-.22.22a.155.155 0 1 1-.22-.22l.22-.22a.375.375 0 0 0 0-.53l-1.5-1.5a.375.375 0 0 0-.527-.003L.863 16.232a.374.374 0 0 0-.003.533l1.578 1.578zm16.708-9.167l.608.609-.587.602-.607-.607.586-.604zm.522-.538l.586-.604.612.612-.588.602-.61-.61zm-1.63 1.68l.605.606-.588.601-.603-.604.585-.603zm-1.109 1.142l.603.602-.588.602-.6-.6.585-.604zm-1.108 1.142l.6.599-.588.601-.598-.597.586-.603zm-1.108 1.141l.596.596-.588.602-.594-.594.586-.604zm-1.108 1.142l.592.593-.587.601-.591-.59.586-.604zm-1.109 1.142l.59.59-.588.601-.587-.587.585-.604zm-1.108 1.142l.586.586-.587.602-.585-.585.586-.603zM10.28 18.31l.583.582-.588.602-.58-.58.585-.604zm-1.108 1.141l.58.58-.773.791-.578-.577.77-.794zm7.7-17.8l.974.975a.905.905 0 0 0 1.277 1.277l.223.223a.905.905 0 0 0 1.277 1.277l1.725 1.724-.958.982-.875-.875a.374.374 0 0 0-.265-.11h-.003a.375.375 0 0 0-.266.114L7.606 19.989a.375.375 0 0 0 .004.526l.845.845-.958.982-1.827-1.827a.905.905 0 0 0-.64-1.545.9.9 0 0 0-.64.265l-.407-.407.032-.033a.905.905 0 0 0-1.28-1.28l-.032.032-1.044-1.044 15.213-14.85z"/>
        <path d="M6.485 19.39a.375.375 0 0 0 .53 0l5.625-5.625a.376.376 0 0 0 0-.53l-3-3a.375.375 0 0 0-.53 0L3.485 15.86a.375.375 0 0 0 0 .53l3 3zm2.89-8.36l2.47 2.47-1.345 1.345-2.47-2.47 1.345-1.345zM7.5 12.905l2.47 2.47-1.345 1.345-2.47-2.47L7.5 12.905zM5.625 14.78l2.47 2.47-1.345 1.345-2.47-2.47 1.345-1.345zM13.235 12.64a.375.375 0 0 0 .53 0l5.625-5.625a.376.376 0 0 0 0-.53l-3-3a.375.375 0 0 0-.53 0L10.235 9.11a.376.376 0 0 0 0 .53l3 3zm2.89-8.36l2.47 2.47-1.345 1.345-2.47-2.47 1.345-1.345zM14.25 6.155l2.47 2.47-1.345 1.345-2.47-2.47 1.345-1.345zM12.375 8.03l2.47 2.47-1.345 1.345-2.47-2.47 1.345-1.345z"/>
    </symbol>
    <symbol id="icon-remove" viewBox="0 0 10 12">
        <path d="M.999 10.667A1.333 1.333 0 0 0 2.332 12h5.333A1.334 1.334 0 0 0 9 10.667v-8h-8v8zm1.64-4.747l.94-.94 1.42 1.413L6.412 4.98l.94.94-1.413 1.413 1.413 1.414-.94.94-1.413-1.414-1.414 1.414-.94-.94L4.06 7.333 2.639 5.92zM7.332.667L6.665 0H3.332l-.667.667H.332V2h9.333V.667H7.332z"/>
    </symbol>
    <symbol id="icon-router" viewBox="0 0 32 32">
        <path d="M30.4 19.2h-.533v-6.934a.538.538 0 0 0-.028-.168l-.506-1.518V3.733a1.6 1.6 0 0 0-3.2 0v6.847l-.505 1.518a.535.535 0 0 0-.028.168V19.2h-7.467v-6.934a.533.533 0 0 0-.027-.168L17.6 10.58V3.733a1.6 1.6 0 0 0-3.2 0v6.847l-.506 1.518a.533.533 0 0 0-.027.168V19.2H6.4v-6.934a.535.535 0 0 0-.028-.168l-.505-1.518V3.733a1.6 1.6 0 0 0-3.2 0v6.847l-.506 1.518a.536.536 0 0 0-.028.168V19.2H1.6A1.6 1.6 0 0 0 0 20.8v5.333a1.6 1.6 0 0 0 1.6 1.6h.533v1.6c0 .295.239.533.534.533h3.2a.533.533 0 0 0 .533-.533v-1.6h19.2v1.6c0 .295.239.533.533.533h3.2a.533.533 0 0 0 .534-.533v-1.6h.533a1.6 1.6 0 0 0 1.6-1.6v-5.334a1.6 1.6 0 0 0-1.6-1.6zm-3.227-8.365a.534.534 0 0 0 .027-.169V3.733a.533.533 0 1 1 1.067 0v6.933c0 .057.009.114.027.169l.506 1.518v3.646h-2.133v-3.646l.505-1.518zm-.506 6.231H28.8V19.2h-2.133v-2.134zm-11.228-6.231a.537.537 0 0 0 .028-.169V3.733a.533.533 0 1 1 1.066 0v6.933c0 .057.01.114.028.169l.506 1.518v3.646h-2.134v-3.646l.506-1.518zm-.506 6.231h2.134V19.2h-2.134v-2.134zM3.706 10.835a.534.534 0 0 0 .027-.169V3.733a.533.533 0 1 1 1.067 0v6.933c0 .057.01.114.027.169l.506 1.518v3.646H3.2v-3.646l.506-1.518zM3.2 17.066h2.133V19.2H3.2v-2.134zM5.333 28.8H3.2v-1.066h2.133v1.066zm23.467 0h-2.133v-1.066H28.8v1.066zm2.133-2.666a.533.533 0 0 1-.533.533H1.6a.533.533 0 0 1-.533-.533v-5.334c0-.294.238-.533.533-.533h28.8c.295 0 .533.239.533.534v5.333z"/>
        <path d="M28.267 21.865a1.6 1.6 0 1 0 0 3.2 1.6 1.6 0 0 0 0-3.2zm0 2.134a.533.533 0 1 1 0-1.067.533.533 0 0 1 0 1.067zM10.667 22.934h1.6V24h-1.6v-1.066zM13.867 22.934h1.6V24h-1.6v-1.066zM17.067 22.934h1.6V24h-1.6v-1.066zM20.267 22.934h1.6V24h-1.6v-1.066zM23.467 22.934h1.6V24h-1.6v-1.066zM2.667 22.934h1.6V24h-1.6v-1.066z"/>
    </symbol>
    <symbol id="icon-rub" viewBox="0 0 20 20">
        <path class="svgRub" fill-rule="evenodd" clip-rule="evenodd"
              d="M10 19.167A9.167 9.167 0 1 0 10 .833a9.167 9.167 0 0 0 0 18.334zm3.962-9.513c.136-.405.205-.84.205-1.307 0-.571-.08-1.064-.237-1.48a2.623 2.623 0 0 0-.677-1.042 2.758 2.758 0 0 0-1.056-.623A4.424 4.424 0 0 0 10.81 5H7.5v5h-.833v1.667H7.5v.833h-.833v1.667H7.5v1.666h1.797v-1.666H12.5V12.5H9.297v-.822h1.607c.547 0 1.025-.084 1.434-.25.41-.176.746-.415 1.01-.716.272-.3.477-.653.614-1.058zm-1.97-2.568c.262.28.394.69.394 1.23 0 .518-.132.933-.394 1.245-.252.3-.647.451-1.182.451H9.297V6.65h1.497c.536 0 .935.145 1.198.436z"/>
    </symbol>
    <symbol id="icon-save" viewBox="0 0 12 12">
        <path d="M8 4H1.333V1.333H8V4zm-2 6.667a2 2 0 1 1 0-4 2 2 0 0 1 0 4zM9.333 0h-8A1.333 1.333 0 0 0 0 1.333v9.334A1.333 1.333 0 0 0 1.333 12h9.334A1.334 1.334 0 0 0 12 10.667v-8L9.333 0z"/>
    </symbol>
    <symbol id="icon-search" viewBox="0 0 18 18">
        <style>.st0{fill:none}</style>
        <path class="st0"
              d="M18 16l-5.2-5.2c1-1.4 1.3-3.2 1.1-4.9-.3-1.7-1.2-3.3-2.5-4.4C10.1.4 8.4-.2 6.6-.1 4.9 0 3.2.7 2 1.9.8 3.1 0 4.8 0 6.5c-.1 1.7.5 3.4 1.6 4.8 1.1 1.3 2.6 2.2 4.4 2.5 1.7.3 3.5-.1 4.9-1.1L16 18l2-2zM2 7c0-2.8 2.2-5 5-5s5 2.2 5 5-2.2 5-5 5-5-2.2-5-5z"/>
    </symbol>
    <symbol id="icon-ssd" viewBox="0 0 32 32">
        <g clip-path="url(#ssd-a)">
            <path d="M9.6 32h4.267a.533.533 0 0 0 .533-.533 1.6 1.6 0 0 1 3.2 0c0 .294.239.533.533.533H22.4c.59 0 1.067-.478 1.067-1.067v-3.2c0-.589-.478-1.066-1.067-1.066V25.6c.59 0 1.067-.478 1.067-1.067v-6.4c0-.589-.478-1.066-1.067-1.066V16c.59 0 1.067-.478 1.067-1.067v-6.4c0-.589-.478-1.066-1.067-1.066V6.4c.59 0 1.067-.478 1.067-1.067V4.267c0-.59-.478-1.067-1.067-1.067V1.067C22.4.477 21.923 0 21.333 0H10.667C10.077 0 9.6.478 9.6 1.067V3.2c-.589 0-1.067.478-1.067 1.067v1.066c0 .59.478 1.067 1.067 1.067v1.067c-.589 0-1.067.477-1.067 1.066v6.4c0 .59.478 1.067 1.067 1.067v1.067c-.589 0-1.067.477-1.067 1.066v6.4c0 .59.478 1.067 1.067 1.067v1.067c-.589 0-1.067.477-1.067 1.066v3.2c0 .59.478 1.067 1.067 1.067zm1.067-30.933h1.6V1.6a.533.533 0 0 0 1.066 0v-.533H14.4V1.6a.533.533 0 0 0 1.067 0v-.533h1.066V1.6a.533.533 0 0 0 1.067 0v-.533h1.067V1.6a.533.533 0 0 0 1.066 0v-.533h1.6V3.2H10.667V1.067zM9.6 27.733c.59 0 1.067-.477 1.067-1.066V25.6c0-.59-.478-1.067-1.067-1.067v-6.4c.59 0 1.067-.477 1.067-1.066V16c0-.59-.478-1.067-1.067-1.067v-6.4c.59 0 1.067-.477 1.067-1.066V6.4c0-.59-.478-1.067-1.067-1.067V4.267h12.8v1.066c-.589 0-1.067.478-1.067 1.067v1.067c0 .589.478 1.066 1.067 1.066v6.4c-.589 0-1.067.478-1.067 1.067v1.067c0 .589.478 1.066 1.067 1.066v6.4c-.589 0-1.067.478-1.067 1.067v1.067c0 .589.478 1.066 1.067 1.066v3.2h-3.787a2.667 2.667 0 0 0-5.226 0H9.6v-3.2z"/>
            <path d="M12.8 13.334h6.4c.59 0 1.067-.478 1.067-1.067V6.401c0-.59-.478-1.067-1.067-1.067h-6.4c-.589 0-1.067.478-1.067 1.067v5.866c0 .59.478 1.067 1.067 1.067zm0-6.933h6.4v5.866h-6.4V6.401zM12.8 20.8h1.6c.59 0 1.067-.477 1.067-1.066v-4.267c0-.589-.478-1.067-1.067-1.067h-1.6c-.589 0-1.067.478-1.067 1.067v4.267c0 .589.478 1.066 1.067 1.066zm0-5.333h1.6v4.267h-1.6v-4.267zM19.2 14.4h-1.6c-.589 0-1.067.478-1.067 1.067v4.267c0 .589.478 1.066 1.067 1.066h1.6c.59 0 1.067-.477 1.067-1.066v-4.267c0-.589-.478-1.067-1.067-1.067zm-1.6 5.334v-4.267h1.6v4.267h-1.6zM20.267 26.667v-3.733c0-.59-.478-1.067-1.067-1.067h-6.4c-.589 0-1.067.478-1.067 1.067v3.733c0 .59.478 1.067 1.067 1.067h6.4c.59 0 1.067-.478 1.067-1.067zM12.8 22.934h6.4v3.733h-6.4v-3.733z"/>
            <path d="M14.4 8.533a.533.533 0 1 0 0-1.066.533.533 0 0 0 0 1.066zM17.6 8.533a.533.533 0 1 0 0-1.066.533.533 0 0 0 0 1.066zM14.4 11.2a.533.533 0 1 0 0-1.067.533.533 0 0 0 0 1.067zM17.6 11.2a.533.533 0 1 0 0-1.067.533.533 0 0 0 0 1.067z"/>
        </g>
    </symbol>
    <symbol id="icon-twiter" viewBox="0 0 22 22">
        <path d="M11 .5C5.202.5.5 5.202.5 11S5.202 21.5 11 21.5 21.5 16.798 21.5 11 16.798.5 11 .5zm5.046 7.915c.007.11.007.225.007.337 0 3.441-2.62 7.404-7.408 7.404a7.383 7.383 0 0 1-3.999-1.167c.211.023.413.033.628.033 1.219 0 2.34-.413 3.232-1.111a2.604 2.604 0 0 1-2.433-1.805c.401.059.762.059 1.175-.047a2.602 2.602 0 0 1-2.084-2.554v-.033c.345.194.75.314 1.174.33a2.605 2.605 0 0 1-.806-3.478 7.39 7.39 0 0 0 5.367 2.721c-.368-1.77.954-3.201 2.543-3.201.75 0 1.425.314 1.901.82.588-.11 1.15-.33 1.652-.626a2.59 2.59 0 0 1-1.143 1.432 5.148 5.148 0 0 0 1.5-.405c-.354.52-.797.982-1.306 1.35z"/>
    </symbol>
    <symbol id="icon-vga" viewBox="0 0 24 24">
        <g clip-path="url(#vga-a)">
            <path d="M2.8 4.4H.4a.4.4 0 0 1 0-.8h2.4a.4.4 0 0 1 0 .8z"/>
            <path d="M2.8 20.4a.4.4 0 0 1-.4-.4V4a.4.4 0 0 1 .8 0v16a.4.4 0 0 1-.4.4z"/>
            <path d="M2.8 12H1.2a.4.4 0 0 1-.4-.4V8.4c0-.22.179-.4.4-.4h1.6c.22 0 .4.18.4.4v3.2a.4.4 0 0 1-.4.4zm-1.2-.8h.8V8.8h-.8v2.4zM2.8 18.4H1.2a.4.4 0 0 1-.4-.4v-3.2c0-.22.179-.4.4-.4h1.6c.22 0 .4.18.4.4V18a.4.4 0 0 1-.4.4zm-1.2-.8h.8v-2.4h-.8v2.4zM14.4 20.4H5.6a.4.4 0 0 1-.4-.4v-2.8c0-.221.18-.4.4-.4h8.8c.221 0 .4.179.4.4V20a.4.4 0 0 1-.4.4zM6 19.6h8v-2H6v2z"/>
            <path d="M7.6 20.4a.4.4 0 0 1-.4-.4v-1.2a.4.4 0 0 1 .8 0V20a.4.4 0 0 1-.4.4zM12.4 20.4a.4.4 0 0 1-.4-.4v-1.2a.4.4 0 0 1 .8 0V20a.4.4 0 0 1-.4.4zM18.4 20.4a.4.4 0 0 1-.4-.4v-1.2a.4.4 0 0 1 .8 0V20a.4.4 0 0 1-.4.4zM10.8 20.4a.4.4 0 0 1-.4-.4v-1.2a.4.4 0 0 1 .8 0V20a.4.4 0 0 1-.4.4zM9.2 20.4a.4.4 0 0 1-.4-.4v-1.2a.4.4 0 0 1 .8 0V20a.4.4 0 0 1-.4.4z"/>
            <path d="M20 20.4h-3.2a.4.4 0 0 1-.4-.4v-2.8c0-.221.18-.4.4-.4H20c.22 0 .4.179.4.4V20a.4.4 0 0 1-.4.4zm-2.8-.8h2.4v-2h-2.4v2zM2.8 7.2H1.2a.4.4 0 0 1 0-.8h1.6a.4.4 0 0 1 0 .8zM2.8 13.6H1.2a.4.4 0 0 1 0-.8h1.6a.4.4 0 0 1 0 .8zM8.4 16A4.405 4.405 0 0 1 4 11.6c0-2.426 1.974-4.4 4.4-4.4s4.4 1.974 4.4 4.4S10.826 16 8.4 16zm0-8a3.604 3.604 0 0 0-3.6 3.6c0 1.985 1.615 3.6 3.6 3.6s3.6-1.615 3.6-3.6S10.385 8 8.4 8z"/>
            <path d="M8.4 13.2c-.883 0-1.6-.718-1.6-1.6 0-.883.717-1.6 1.6-1.6.882 0 1.6.717 1.6 1.6 0 .882-.718 1.6-1.6 1.6zm0-2.4a.8.8 0 1 0 .001 1.601A.8.8 0 0 0 8.4 10.8z"/>
            <path d="M21.6 17.6H2.8a.4.4 0 0 1-.4-.4V6c0-.22.18-.4.4-.4h18.8C22.925 5.6 24 6.676 24 8v7.2c0 1.324-1.076 2.4-2.4 2.4zm-18.4-.8h18.4c.883 0 1.6-.718 1.6-1.6V8c0-.883-.717-1.6-1.6-1.6H3.2v10.4z"/>
            <path d="M8.4 10.8a.4.4 0 0 1-.4-.4c0-.862-1.1-1.6-2-1.6A.4.4 0 0 1 6 8c1.295 0 2.8 1.048 2.8 2.4a.4.4 0 0 1-.4.4zM10.8 15.2C9.505 15.2 8 14.15 8 12.8a.4.4 0 0 1 .8 0c0 .861 1.1 1.6 2 1.6a.4.4 0 0 1 0 .8zM5.2 14.4a.4.4 0 0 1-.4-.4c0-1.295 1.048-2.8 2.4-2.8a.4.4 0 0 1 0 .8c-.862 0-1.6 1.1-1.6 2a.4.4 0 0 1-.4.4zM9.6 12a.4.4 0 0 1 0-.8c.862 0 1.6-1.1 1.6-2a.4.4 0 0 1 .8 0c0 1.295-1.048 2.8-2.4 2.8z"/>
            <path d="M4.44 11.435a.399.399 0 0 1-.282-.683c.445-.445 1.114-.76 1.79-.842.763-.094 1.433.106 1.886.559a.4.4 0 0 1-.565.566c-.272-.272-.717-.392-1.224-.331-.505.06-.998.29-1.321.613a.403.403 0 0 1-.284.118zM10.492 13.313c-.613 0-1.146-.2-1.526-.582a.4.4 0 0 1 .565-.565c.272.271.718.392 1.225.33.504-.06.998-.29 1.32-.613a.4.4 0 1 1 .566.566c-.445.445-1.114.76-1.79.841a2.879 2.879 0 0 1-.36.023zM7.835 15.96a.399.399 0 0 1-.283-.118c-.916-.915-1.238-2.721-.283-3.677a.4.4 0 1 1 .566.566c-.61.61-.354 1.909.282 2.545a.4.4 0 0 1-.282.684zM9.248 11.152a.399.399 0 0 1-.283-.683c.61-.61.354-1.91-.282-2.546a.4.4 0 1 1 .565-.565c.916.916 1.238 2.721.283 3.677a.4.4 0 0 1-.283.117zM18 16a4.405 4.405 0 0 1-4.4-4.4c0-2.426 1.974-4.4 4.4-4.4s4.4 1.974 4.4 4.4S20.426 16 18 16zm0-8a3.604 3.604 0 0 0-3.6 3.6c0 1.985 1.615 3.6 3.6 3.6s3.6-1.615 3.6-3.6S19.985 8 18 8z"/>
            <path d="M18 13.2c-.882 0-1.6-.718-1.6-1.6 0-.883.718-1.6 1.6-1.6.883 0 1.6.717 1.6 1.6 0 .882-.718 1.6-1.6 1.6zm0-2.4a.8.8 0 1 0 .002 1.601A.8.8 0 0 0 18 10.8z"/>
            <path d="M18 10.8a.4.4 0 0 1-.4-.4c0-.862-1.1-1.6-2-1.6a.4.4 0 0 1 0-.8c1.295 0 2.8 1.048 2.8 2.4a.4.4 0 0 1-.4.4zM20.4 15.2c-1.295 0-2.8-1.049-2.8-2.4a.4.4 0 0 1 .8 0c0 .861 1.1 1.6 2 1.6a.4.4 0 0 1 0 .8zM14.8 14.4a.4.4 0 0 1-.4-.4c0-1.295 1.049-2.8 2.4-2.8a.4.4 0 0 1 0 .8c-.862 0-1.6 1.1-1.6 2a.4.4 0 0 1-.4.4zM19.2 12a.4.4 0 0 1 0-.8c.862 0 1.6-1.1 1.6-2a.4.4 0 0 1 .8 0c0 1.295-1.049 2.8-2.4 2.8z"/>
            <path d="M14.04 11.435a.4.4 0 0 1-.282-.683c.445-.445 1.114-.76 1.79-.842.763-.094 1.434.106 1.886.559a.4.4 0 0 1-.565.566c-.271-.272-.718-.392-1.224-.331-.505.06-.998.29-1.321.613a.403.403 0 0 1-.284.118zM20.092 13.313c-.613 0-1.146-.2-1.526-.582a.4.4 0 0 1 .565-.565c.272.271.718.392 1.225.33.504-.06.998-.29 1.32-.613a.4.4 0 1 1 .566.566c-.445.445-1.115.76-1.79.841a2.88 2.88 0 0 1-.36.023zM17.434 15.96a.399.399 0 0 1-.282-.118c-.916-.915-1.239-2.721-.283-3.677a.4.4 0 1 1 .566.566c-.61.61-.354 1.909.282 2.545a.4.4 0 0 1-.282.684zM18.848 11.152a.399.399 0 0 1-.282-.683c.609-.61.354-1.91-.283-2.546a.4.4 0 1 1 .565-.565c.916.916 1.239 2.721.283 3.677a.4.4 0 0 1-.283.117z"/>
        </g>
    </symbol>
    <symbol id="icon-vk" viewBox="0 0 20 20">
        <path d="M10 0C4.477 0 0 4.477 0 10s4.477 10 10 10 10-4.477 10-10S15.523 0 10 0zm3.846 11.282s.884.873 1.102 1.278c.006.009.01.017.011.021.089.15.11.265.066.351-.073.144-.323.215-.408.221h-1.563c-.108 0-.335-.028-.61-.218-.212-.148-.42-.39-.623-.627-.303-.352-.566-.656-.83-.656a.316.316 0 0 0-.1.016c-.2.064-.456.35-.456 1.11 0 .238-.187.374-.32.374H9.4c-.244 0-1.514-.085-2.639-1.272-1.377-1.453-2.616-4.368-2.627-4.395-.078-.188.084-.29.26-.29h1.578c.21 0 .279.129.327.242.056.133.262.659.601 1.25.549.965.885 1.357 1.155 1.357.05 0 .1-.014.145-.038.352-.196.286-1.45.27-1.711 0-.05 0-.562-.18-.808-.13-.178-.35-.245-.483-.27a.573.573 0 0 1 .208-.176c.241-.121.677-.139 1.109-.139h.24c.47.006.59.037.76.08.344.082.351.303.32 1.063-.009.215-.018.46-.018.747 0 .062-.003.129-.003.2-.01.386-.023.825.25 1.005a.225.225 0 0 0 .119.034c.095 0 .38 0 1.153-1.326.238-.427.445-.87.62-1.327.015-.027.061-.11.115-.143.04-.02.085-.03.13-.03h1.855c.202 0 .34.03.366.109.046.123-.008.502-.855 1.649l-.378.498c-.768 1.007-.768 1.058.048 1.821z"/>
    </symbol>
    <symbol id="icon-point" viewBox="0 0 14 20">
        <path d="M7 9.5a2.5 2.5 0 1 1 0-5 2.5 2.5 0 0 1 0 5zM7 0a7 7 0 0 0-7 7c0 5.25 7 13 7 13s7-7.75 7-13a7 7 0 0 0-7-7z"
              fill="#fff"/>
    </symbol>

</svg>